<svg width="56" height="61" viewBox="0 0 56 61" fill="none" xmlns="http://www.w3.org/2000/svg">
<path d="M43.6894 55.5834C43.4721 55.5835 43.2627 55.5017 43.103 55.3544C42.9432 55.2071 42.8447 55.005 42.8272 54.7884C42.8096 54.5718 42.8743 54.3565 43.0082 54.1854C43.1422 54.0143 43.3357 53.8998 43.5502 53.8649C45.0593 53.6208 46.4316 52.846 47.4202 51.68C48.4088 50.514 48.9487 49.0334 48.9426 47.5047C48.9427 46.8713 48.8513 46.2412 48.6711 45.634C48.6389 45.5251 48.6284 45.4109 48.6404 45.2979C48.6523 45.185 48.6864 45.0755 48.7406 44.9757C48.7949 44.8759 48.8682 44.7878 48.9566 44.7164C49.0449 44.6449 49.1464 44.5916 49.2553 44.5594C49.3642 44.5272 49.4784 44.5168 49.5914 44.5287C49.7043 44.5406 49.8138 44.5747 49.9136 44.629C50.0134 44.6832 50.1015 44.7566 50.1729 44.8449C50.2443 44.9332 50.2977 45.0347 50.3299 45.1436C50.5581 45.9099 50.6746 46.7051 50.6758 47.5047C50.6832 49.4439 49.998 51.3221 48.7437 52.8011C47.4894 54.2801 45.7483 55.2627 43.8339 55.5722C43.7861 55.5795 43.7378 55.5832 43.6894 55.5834Z" fill="#28574E"/>
<path d="M11.3716 55.5834C11.3244 55.5831 11.2773 55.5793 11.2307 55.5722C9.31627 55.2627 7.57519 54.2801 6.32088 52.8011C5.06656 51.3221 4.3814 49.4439 4.38873 47.5047C4.38995 46.7051 4.50646 45.9099 4.73468 45.1436C4.76688 45.0347 4.82021 44.9332 4.89164 44.8449C4.96307 44.7566 5.05119 44.6832 5.15098 44.629C5.25076 44.5747 5.36026 44.5406 5.47321 44.5287C5.58616 44.5168 5.70035 44.5272 5.80927 44.5594C5.91819 44.5916 6.0197 44.6449 6.10801 44.7164C6.19631 44.7878 6.26969 44.8759 6.32393 44.9757C6.37818 45.0755 6.41225 45.185 6.42418 45.2979C6.43612 45.4109 6.42569 45.5251 6.39349 45.634C6.2133 46.2412 6.12184 46.8713 6.12192 47.5047C6.1159 49.0334 6.65577 50.514 7.64436 51.68C8.63294 52.846 10.0053 53.6208 11.5144 53.8649C11.7289 53.8998 11.9223 54.0143 12.0563 54.1854C12.1903 54.3565 12.2549 54.5718 12.2374 54.7884C12.2198 55.005 12.1214 55.2071 11.9616 55.3544C11.8018 55.5017 11.5924 55.5835 11.3751 55.5834H11.3716Z" fill="#28574E"/>
<path d="M44.5565 14.3056C44.3974 14.3056 44.2415 14.2616 44.1058 14.1787C43.9701 14.0958 43.8599 13.977 43.7873 13.8355C43.7148 13.694 43.6826 13.5352 43.6944 13.3766C43.7062 13.218 43.7615 13.0658 43.8542 12.9366C44.3805 12.2013 44.6614 11.3188 44.6568 10.4146C44.6552 9.36795 44.2807 8.3561 43.6006 7.56057C42.9204 6.76504 41.979 6.23789 40.9453 6.07368C39.9116 5.90947 38.8532 6.11894 37.96 6.66451C37.0668 7.21009 36.3972 8.05608 36.0713 9.05072C35.9962 9.26402 35.8405 9.43944 35.6377 9.53937C35.4348 9.6393 35.2009 9.65581 34.986 9.58535C34.7711 9.51489 34.5924 9.36308 34.4881 9.16243C34.3838 8.96178 34.3622 8.72826 34.428 8.51191C34.8818 7.12595 35.8148 5.9471 37.0594 5.18695C38.3039 4.4268 39.7787 4.13512 41.219 4.36426C42.6592 4.5934 43.9706 5.32836 44.9179 6.43722C45.8651 7.54608 46.3861 8.95625 46.3874 10.4146C46.3935 11.6804 46 12.9158 45.2631 13.945C45.1826 14.0571 45.0765 14.1484 44.9536 14.2111C44.8306 14.2738 44.6945 14.3063 44.5565 14.3056Z" fill="#28574E"/>
<path d="M51.2991 24.3047C51.1569 24.3047 51.0169 24.2696 50.8916 24.2026C50.7662 24.1356 50.6592 24.0387 50.5802 23.9206C50.5012 23.8024 50.4525 23.6666 50.4385 23.5251C50.4245 23.3836 50.4456 23.2409 50.4999 23.1095C50.8023 22.3662 50.9551 21.5707 50.9497 20.7683C50.9595 19.9139 50.7998 19.066 50.4797 18.2738C50.1595 17.4815 49.6854 16.7607 49.0847 16.153C48.484 15.5453 47.7687 15.0628 46.9802 14.7336C46.1917 14.4043 45.3457 14.2347 44.4913 14.2347C43.6368 14.2347 42.7908 14.4043 42.0023 14.7336C41.2139 15.0628 40.4986 15.5453 39.8979 16.153C39.2972 16.7607 38.823 17.4815 38.5029 18.2738C38.1828 19.066 38.023 19.9139 38.0329 20.7683C38.0329 20.9977 37.9418 21.2177 37.7796 21.3799C37.6174 21.542 37.3974 21.6332 37.168 21.6332C36.9387 21.6332 36.7187 21.542 36.5565 21.3799C36.3943 21.2177 36.3032 20.9977 36.3032 20.7683C36.292 19.6859 36.4956 18.6121 36.9021 17.6089C37.3086 16.6057 37.91 15.6931 38.6714 14.9238C39.4329 14.1545 40.3393 13.5438 41.3382 13.127C42.3372 12.7102 43.4089 12.4956 44.4913 12.4956C45.5737 12.4956 46.6454 12.7102 47.6443 13.127C48.6433 13.5438 49.5497 14.1545 50.3111 14.9238C51.0726 15.6931 51.6739 16.6057 52.0804 17.6089C52.4869 18.6121 52.6905 19.6859 52.6794 20.7683C52.6854 21.7985 52.4882 22.8198 52.0991 23.7737C52.0331 23.9314 51.9219 24.0659 51.7795 24.1604C51.6371 24.255 51.47 24.3052 51.2991 24.3047Z" fill="#28574E"/>
<path d="M46.8699 37.4499C46.5889 37.4499 46.3104 37.4352 46.0362 37.4084C45.9232 37.397 45.8135 37.3635 45.7135 37.3098C45.6134 37.256 45.5249 37.1831 45.453 37.0952C45.3812 37.0072 45.3273 36.906 45.2946 36.7973C45.2618 36.6885 45.2508 36.5744 45.2621 36.4614C45.2735 36.3484 45.307 36.2387 45.3608 36.1386C45.4145 36.0386 45.4874 35.9501 45.5754 35.8782C45.6633 35.8063 45.7645 35.7525 45.8733 35.7197C45.982 35.687 46.0962 35.6759 46.2092 35.6873C46.4254 35.7086 46.6448 35.7196 46.8673 35.7202C48.2186 35.7216 49.5363 35.2987 50.6343 34.5112C51.7324 33.7237 52.5555 32.6112 52.9875 31.3308C53.4195 30.0505 53.4386 28.6668 53.042 27.375C52.6455 26.0832 51.8534 24.9485 50.7774 24.131C50.5939 23.9934 50.4726 23.7885 50.4401 23.5614C50.4077 23.3343 50.4668 23.1037 50.6044 22.9202C50.742 22.7367 50.9469 22.6154 51.174 22.5829C51.4011 22.5505 51.6317 22.6096 51.8152 22.7472C53.1785 23.7842 54.1822 25.2227 54.6849 26.8601C55.1877 28.4975 55.1642 30.2513 54.6178 31.8747C54.0714 33.4981 53.0296 34.9092 51.6391 35.9093C50.2485 36.9095 48.5793 37.4483 46.8665 37.4499H46.8699Z" fill="#28574E"/>
<path d="M49.4984 46.2538C49.3005 46.254 49.1085 46.1863 48.9544 46.0619C48.8004 45.9376 48.6937 45.7642 48.6521 45.5707C48.6105 45.3772 48.6366 45.1753 48.7259 44.9987C48.8152 44.822 48.9624 44.6814 49.1429 44.6002C50.2714 44.0897 51.2289 43.2648 51.9007 42.2242C52.5725 41.1837 52.9303 39.9716 52.931 38.733C52.9367 37.2923 52.4531 35.8923 51.5594 34.7624C51.4232 34.5817 51.3632 34.3549 51.3923 34.1306C51.4214 33.9063 51.5373 33.7023 51.715 33.5623C51.8927 33.4224 52.1182 33.3576 52.3431 33.382C52.568 33.4063 52.7744 33.5178 52.9181 33.6925C53.683 34.6667 54.2162 35.8022 54.4773 37.013C54.7385 38.2238 54.7207 39.4781 54.4254 40.681C54.1301 41.8839 53.5649 43.0039 52.7727 43.956C51.9805 44.9082 50.9821 45.6676 49.853 46.1769C49.7416 46.2273 49.6207 46.2535 49.4984 46.2538Z" fill="#28574E"/>
<path d="M10.5053 14.3056C10.3678 14.3057 10.2324 14.273 10.1101 14.2103C9.98782 14.1476 9.88225 14.0566 9.80213 13.945C9.06518 12.9158 8.67173 11.6804 8.6778 10.4146C8.67908 8.95625 9.2001 7.54608 10.1473 6.43722C11.0946 5.32836 12.406 4.5934 13.8462 4.36426C15.2865 4.13512 16.7613 4.4268 18.0058 5.18695C19.2504 5.9471 20.1833 7.12595 20.6372 8.51191C20.6754 8.62052 20.6916 8.73568 20.6847 8.85063C20.6778 8.96557 20.6481 9.07799 20.5972 9.18129C20.5463 9.28458 20.4753 9.37668 20.3884 9.45217C20.3014 9.52766 20.2002 9.58502 20.0908 9.6209C19.9814 9.65678 19.8659 9.67044 19.7512 9.6611C19.6364 9.65175 19.5246 9.61958 19.4225 9.56647C19.3203 9.51336 19.2298 9.44038 19.1562 9.35182C19.0826 9.26325 19.0274 9.16089 18.9939 9.05072C18.669 8.05478 17.9996 7.20736 17.1059 6.66072C16.2122 6.11408 15.1529 5.90405 14.1183 6.06838C13.0837 6.23271 12.1416 6.76062 11.4612 7.55725C10.7809 8.35388 10.407 9.36702 10.4067 10.4146C10.4021 11.3188 10.6829 12.2013 11.2093 12.9366C11.302 13.0658 11.3573 13.218 11.3691 13.3766C11.3809 13.5352 11.3487 13.694 11.2761 13.8355C11.2035 13.977 11.0933 14.0958 10.9576 14.1787C10.822 14.2616 10.666 14.3056 10.507 14.3056H10.5053Z" fill="#28574E"/>
<path d="M3.76162 24.3047C3.59033 24.3049 3.42286 24.2542 3.28043 24.159C3.13801 24.0638 3.02705 23.9285 2.96162 23.7702C2.57288 22.8174 2.37569 21.7974 2.38129 20.7683C2.37017 19.6859 2.57374 18.6121 2.98025 17.6089C3.38675 16.6057 3.98811 15.6931 4.74955 14.9238C5.51099 14.1545 6.4174 13.5438 7.41635 13.127C8.41531 12.7102 9.48698 12.4956 10.5694 12.4956C11.6518 12.4956 12.7235 12.7102 13.7224 13.127C14.7214 13.5438 15.6278 14.1545 16.3893 14.9238C17.1507 15.6931 17.7521 16.6057 18.1586 17.6089C18.5651 18.6121 18.7686 19.6859 18.7575 20.7683C18.7575 20.9977 18.6664 21.2177 18.5042 21.3799C18.342 21.542 18.122 21.6332 17.8926 21.6332C17.6633 21.6332 17.4433 21.542 17.2811 21.3799C17.1189 21.2177 17.0278 20.9977 17.0278 20.7683C17.0377 19.9139 16.8779 19.066 16.5578 18.2738C16.2377 17.4815 15.7635 16.7607 15.1628 16.153C14.5621 15.5453 13.8468 15.0628 13.0583 14.7336C12.2699 14.4043 11.4239 14.2347 10.5694 14.2347C9.71493 14.2347 8.86895 14.4043 8.08047 14.7336C7.29199 15.0628 6.57668 15.5453 5.97598 16.153C5.37529 16.7607 4.90114 17.4815 4.58101 18.2738C4.26088 19.066 4.10113 19.9139 4.11102 20.7683C4.10512 21.5718 4.25796 22.3686 4.56075 23.1129C4.64726 23.3245 4.64651 23.5617 4.55868 23.7727C4.47084 23.9837 4.30306 24.1513 4.09199 24.239C3.98716 24.2821 3.87496 24.3044 3.76162 24.3047Z" fill="#28574E"/>
<path d="M8.191 37.4499C6.47634 37.452 4.80436 36.9154 3.41126 35.9157C2.01817 34.916 0.974395 33.5039 0.427414 31.8788C-0.119567 30.2538 -0.142104 28.4979 0.362988 26.8593C0.86808 25.2207 1.87526 23.7823 3.24224 22.7472C3.42574 22.6096 3.6564 22.5505 3.88347 22.5829C4.11054 22.6154 4.31543 22.7367 4.45305 22.9202C4.59068 23.1037 4.64977 23.3343 4.61733 23.5614C4.5849 23.7885 4.46358 23.9934 4.28008 24.131C3.20729 24.9501 2.41816 26.0848 2.02361 27.3756C1.62906 28.6664 1.64893 30.0484 2.08042 31.3273C2.51192 32.6062 3.33334 33.7178 4.42923 34.5057C5.52513 35.2937 6.84038 35.7184 8.19014 35.7202C8.41269 35.7202 8.63208 35.7092 8.8483 35.6873C8.9613 35.6759 9.07544 35.687 9.1842 35.7197C9.29295 35.7525 9.39418 35.8063 9.48212 35.8782C9.57006 35.9501 9.64298 36.0386 9.69672 36.1386C9.75046 36.2387 9.78397 36.3484 9.79532 36.4614C9.80668 36.5744 9.79567 36.6885 9.76292 36.7973C9.73016 36.906 9.67631 37.0072 9.60443 37.0952C9.53255 37.1831 9.44406 37.256 9.344 37.3098C9.24394 37.3635 9.13428 37.397 9.02127 37.4084C8.75057 37.4352 8.47208 37.4499 8.191 37.4499Z" fill="#28574E"/>
<path d="M5.56347 46.2542C5.44116 46.254 5.3203 46.2277 5.20887 46.1773C4.07949 45.6684 3.0807 44.9092 2.28815 43.9572C1.49561 43.0052 0.930085 41.8853 0.634415 40.6824C0.338745 39.4794 0.320679 38.225 0.581586 37.014C0.842493 35.8031 1.37553 34.6674 2.14033 33.693C2.20962 33.601 2.29656 33.5239 2.39606 33.466C2.49556 33.4081 2.60561 33.3706 2.71977 33.3558C2.83393 33.341 2.9499 33.3491 3.06087 33.3797C3.17185 33.4103 3.2756 33.4628 3.36604 33.534C3.45649 33.6052 3.5318 33.6938 3.58758 33.7945C3.64335 33.8952 3.67846 34.006 3.69085 34.1204C3.70323 34.2349 3.69265 34.3507 3.65971 34.461C3.62677 34.5713 3.57215 34.6739 3.49904 34.7628C2.6053 35.8928 2.12169 37.2927 2.12736 38.7334C2.12814 39.972 2.48585 41.1841 3.15768 42.2247C3.8295 43.2652 4.78697 44.0901 5.91547 44.6006C6.09598 44.6818 6.24318 44.8225 6.3325 44.9991C6.42182 45.1757 6.44786 45.3776 6.40626 45.5711C6.36467 45.7647 6.25796 45.938 6.10394 46.0624C5.94993 46.1867 5.75794 46.2544 5.56001 46.2542H5.56347Z" fill="#28574E"/>
<path d="M35.9891 60.5517C33.5171 60.549 31.147 59.5658 29.399 57.8177C27.651 56.0697 26.6678 53.6997 26.665 51.2276V5.49185C26.6264 4.7181 26.7519 3.94493 27.0332 3.22307C27.3144 2.50122 27.7451 1.84699 28.297 1.30331C28.9055 0.759185 29.6352 0.368444 30.4253 0.163684C31.2155 -0.041076 32.0432 -0.0539184 32.8393 0.126228C36.6688 1.03331 40.2612 2.74536 43.3777 5.1485C43.5566 5.29243 43.671 5.50154 43.6957 5.72983C43.7205 5.95812 43.6535 6.18688 43.5096 6.3658C43.3656 6.54471 43.1565 6.65912 42.9282 6.68385C42.6999 6.70859 42.4712 6.64162 42.2923 6.49769C39.3857 4.27667 36.049 2.6842 32.4942 1.82136C31.9693 1.69641 31.4221 1.69855 30.8982 1.82761C30.3743 1.95668 29.8887 2.20894 29.4819 2.56342C29.1057 2.94821 28.8146 3.40772 28.6273 3.91218C28.44 4.41665 28.3608 4.95482 28.3948 5.49185V51.2276C28.3954 52.9631 28.9903 54.6459 30.0805 55.9962C31.1706 57.3465 32.6903 58.2829 34.3865 58.6494C36.0828 59.0159 37.8535 58.7906 39.4039 58.0108C40.9543 57.2311 42.1909 55.944 42.908 54.3636C43.0029 54.1547 43.1769 53.9919 43.3917 53.9113C43.6065 53.8306 43.8446 53.8385 44.0536 53.9334C44.2625 54.0282 44.4253 54.2022 44.5059 54.417C44.5866 54.6318 44.5787 54.8699 44.4838 55.0789C43.741 56.709 42.5455 58.0915 41.0395 59.0617C39.5335 60.032 37.7806 60.5491 35.9891 60.5517Z" fill="#28574E"/>
<path d="M39.2189 44.9151H39.1471C38.9186 44.8962 38.7069 44.7872 38.5587 44.6122C38.4104 44.4372 38.3378 44.2105 38.3567 43.9819C38.4816 43.0811 38.4221 42.1642 38.1819 41.2871C37.9416 40.4099 37.5256 39.5907 36.959 38.8792C35.5919 37.4639 33.7681 36.5779 31.8105 36.378C31.5817 36.3615 31.3688 36.2548 31.2187 36.0813C31.0686 35.9079 30.9935 35.6819 31.0101 35.4531C31.0266 35.2243 31.1333 35.0114 31.3068 34.8613C31.4802 34.7112 31.7062 34.6361 31.935 34.6526C34.3533 34.8863 36.6051 35.988 38.2736 37.754C38.9913 38.6367 39.5217 39.6563 39.8323 40.7507C40.1429 41.8451 40.2273 42.9914 40.0803 44.1194C40.0629 44.336 39.9647 44.5381 39.8051 44.6856C39.6455 44.833 39.4362 44.9149 39.2189 44.9151Z" fill="#28574E"/>
<path d="M33.6998 52.4042H33.6591C33.5457 52.3989 33.4343 52.3714 33.3315 52.3232C33.2287 52.2749 33.1364 52.2069 33.0598 52.123C32.9833 52.0391 32.924 51.9409 32.8854 51.8341C32.8468 51.7272 32.8297 51.6138 32.8349 51.5004C32.9759 48.4543 34.9625 42.7722 41.4516 43.0014C41.5651 43.0056 41.6768 43.0321 41.7801 43.0794C41.8834 43.1268 41.9764 43.194 42.0537 43.2773C42.1311 43.3606 42.1912 43.4583 42.2308 43.5648C42.2704 43.6714 42.2886 43.7846 42.2844 43.8982C42.2802 44.0118 42.2537 44.1234 42.2063 44.2268C42.159 44.3301 42.0918 44.4231 42.0085 44.5004C41.9252 44.5777 41.8275 44.6379 41.721 44.6775C41.6144 44.7171 41.5011 44.7353 41.3876 44.7311C34.9824 44.5002 34.5767 51.2911 34.5629 51.5808C34.5522 51.8026 34.4567 52.0118 34.296 52.1651C34.1353 52.3184 33.9218 52.404 33.6998 52.4042Z" fill="#28574E"/>
<path d="M39.3794 28.284C38.1819 28.2851 36.999 28.0222 35.9147 27.5139C34.8305 27.0056 33.8717 26.2646 33.1065 25.3435C33.0306 25.2567 32.9728 25.1556 32.9365 25.0461C32.9002 24.9367 32.8862 24.821 32.8953 24.7061C32.9043 24.5911 32.9363 24.4791 32.9893 24.3767C33.0422 24.2743 33.1152 24.1835 33.2038 24.1096C33.2924 24.0358 33.3948 23.9804 33.5051 23.9468C33.6154 23.9131 33.7314 23.9019 33.8461 23.9137C33.9608 23.9255 34.072 23.9602 34.1731 24.0156C34.2742 24.071 34.3633 24.1461 34.4349 24.2365C35.2809 25.2529 36.4196 25.9839 37.6959 26.33C38.9722 26.6761 40.3242 26.6204 41.5678 26.1705C42.8113 25.7206 43.886 24.8985 44.6455 23.8159C45.405 22.7333 45.8124 21.443 45.8122 20.1206C45.8122 19.9554 45.8062 19.7911 45.7941 19.6285C45.7835 19.5141 45.7957 19.3988 45.8301 19.2893C45.8645 19.1798 45.9204 19.0782 45.9945 18.9904C46.0686 18.9027 46.1594 18.8306 46.2616 18.7784C46.3638 18.7261 46.4754 18.6947 46.5899 18.6861C46.7044 18.6774 46.8195 18.6916 46.9284 18.7279C47.0374 18.7641 47.138 18.8217 47.2244 18.8973C47.3109 18.9729 47.3814 19.0649 47.4319 19.168C47.4824 19.2711 47.5119 19.3832 47.5186 19.4979C47.5342 19.7037 47.542 19.9113 47.542 20.1206C47.5399 22.2849 46.6793 24.36 45.149 25.8904C43.6187 27.4209 41.5437 28.2817 39.3794 28.284Z" fill="#28574E"/>
<path d="M44.4919 33.3087H44.4746C40.2661 33.2266 38.289 29.5267 37.8315 27.5816C37.7817 27.3595 37.8214 27.1267 37.9421 26.9337C38.0627 26.7408 38.2546 26.6031 38.4761 26.5506C38.6975 26.4982 38.9307 26.5351 39.1252 26.6535C39.3196 26.7718 39.4595 26.962 39.5146 27.1829C39.5578 27.3558 40.6017 31.5029 44.5083 31.579C44.7377 31.5812 44.9568 31.6744 45.1174 31.8381C45.2781 32.0018 45.3671 32.2227 45.3649 32.4521C45.3628 32.6814 45.2696 32.9006 45.1058 33.0612C44.9421 33.2219 44.7212 33.3109 44.4919 33.3087Z" fill="#28574E"/>
<path d="M19.0714 60.5522C17.2804 60.5491 15.528 60.0316 14.0226 59.0614C12.5171 58.0912 11.322 56.709 10.5793 55.0793C10.4845 54.8703 10.4765 54.6322 10.5572 54.4174C10.6379 54.2026 10.8006 54.0286 11.0096 53.9338C11.2185 53.8389 11.4566 53.831 11.6715 53.9117C11.8863 53.9924 12.0603 54.1551 12.1551 54.364C12.8731 55.9428 14.1098 57.2284 15.6596 58.007C17.2094 58.7856 18.979 59.0104 20.6743 58.644C22.3696 58.2777 23.8884 57.3422 24.9784 55.9931C26.0683 54.6439 26.6638 52.9624 26.6658 51.228V5.49226C26.6997 4.95523 26.6205 4.41705 26.4332 3.91259C26.246 3.40813 25.9548 2.94862 25.5787 2.56383C25.1721 2.20929 24.6866 1.957 24.1628 1.82793C23.639 1.69885 23.092 1.69675 22.5672 1.82177C19.0119 2.68072 15.6746 4.2713 12.7683 6.49204C12.5889 6.62074 12.3671 6.67594 12.1483 6.64635C11.9295 6.61676 11.7303 6.50461 11.5915 6.33289C11.4527 6.16116 11.3849 5.94287 11.4019 5.72274C11.4189 5.5026 11.5194 5.2973 11.6829 5.14891C14.7996 2.74563 18.3924 1.03358 22.2221 0.126638C23.0181 -0.0534362 23.8456 -0.0405558 24.6356 0.164204C25.4256 0.368964 26.1552 0.759666 26.7635 1.30372C27.3154 1.8474 27.7461 2.50163 28.0274 3.22348C28.3087 3.94534 28.4341 4.71851 28.3955 5.49226V51.228C28.3928 53.7001 27.4095 56.0701 25.6615 57.8182C23.9135 59.5662 21.5435 60.5494 19.0714 60.5522Z" fill="#28574E"/>
<path d="M12.8543 47.1084C12.6368 47.1092 12.427 47.028 12.2667 46.881C12.1065 46.734 12.0074 46.5321 11.9894 46.3154C11.8409 45.1859 11.9245 44.038 12.2352 42.9419C12.5458 41.8459 13.077 40.8249 13.7961 39.9413C15.4642 38.1752 17.7157 37.0733 20.1338 36.8399C20.362 36.8264 20.5865 36.9026 20.7593 37.0522C20.9322 37.2018 21.0398 37.413 21.0592 37.6408C21.0675 37.7541 21.0533 37.8679 21.0176 37.9757C20.9818 38.0835 20.9252 38.1833 20.8509 38.2692C20.7766 38.3551 20.6861 38.4256 20.5846 38.4765C20.4831 38.5275 20.3725 38.5579 20.2592 38.5662C18.2988 38.7708 16.4728 39.6587 15.1012 41.0743C14.5377 41.7861 14.1241 42.6046 13.8856 43.4806C13.647 44.3565 13.5883 45.2717 13.7131 46.1709C13.732 46.3995 13.6593 46.6262 13.5111 46.8012C13.3628 46.9762 13.1511 47.0852 12.9226 47.1041L12.8543 47.1084Z" fill="#28574E"/>
<path d="M18.3722 54.5962C18.1499 54.5965 17.936 54.5111 17.7749 54.3578C17.6139 54.2045 17.5181 53.995 17.5074 53.7729C17.4927 53.4832 17.075 46.6732 10.6827 46.9214C10.4534 46.9299 10.23 46.8469 10.0618 46.6907C9.89362 46.5345 9.79436 46.3179 9.78587 46.0886C9.77738 45.8592 9.86036 45.6358 10.0166 45.4676C10.1727 45.2994 10.3894 45.2002 10.6187 45.1917C17.0992 44.9556 19.0944 50.6447 19.2354 53.6907C19.2406 53.8042 19.2234 53.9176 19.1849 54.0244C19.1463 54.1312 19.087 54.2294 19.0105 54.3133C18.9339 54.3973 18.8416 54.4653 18.7388 54.5135C18.636 54.5618 18.5246 54.5893 18.4112 54.5945L18.3722 54.5962Z" fill="#28574E"/>
<path d="M27.5309 52.0926H27.5257C27.412 52.0919 27.2996 52.0688 27.1949 52.0247C27.0902 51.9806 26.9952 51.9162 26.9153 51.8353C26.8355 51.7544 26.7724 51.6586 26.7296 51.5533C26.6868 51.448 26.6652 51.3353 26.666 51.2217C26.7229 49.5255 26.178 47.864 25.1279 46.5308C24.0777 45.1977 22.5899 44.2789 20.9276 43.9369C20.7024 43.8935 20.5036 43.7623 20.3751 43.5723C20.2466 43.3823 20.1988 43.149 20.2422 42.9237C20.2857 42.6985 20.4169 42.4997 20.6069 42.3712C20.7969 42.2427 21.0302 42.1949 21.2554 42.2383C21.3272 42.2522 28.4433 43.7086 28.3957 51.2329C28.3944 51.4614 28.3027 51.68 28.1406 51.8411C27.9786 52.0022 27.7594 52.0926 27.5309 52.0926Z" fill="#28574E"/>
<path d="M27.5305 18.1436C27.4512 18.1437 27.3723 18.1326 27.2961 18.1108C27.1868 18.0799 27.0846 18.0279 26.9954 17.9575C26.9062 17.8872 26.8318 17.8 26.7763 17.7009C26.7208 17.6018 26.6853 17.4927 26.672 17.3799C26.6587 17.2671 26.6677 17.1528 26.6985 17.0435C27.1534 15.4279 28.8883 12.4597 32.1636 12.7866C32.3918 12.8096 32.6016 12.9222 32.7468 13.0998C32.8919 13.2774 32.9606 13.5054 32.9376 13.7337C32.9147 13.9619 32.802 14.1717 32.6244 14.3168C32.4468 14.462 32.2189 14.5307 31.9906 14.5077C29.3234 14.2483 28.3712 17.4803 28.3582 17.5131C28.3073 17.6938 28.1991 17.853 28.0498 17.9668C27.9005 18.0805 27.7182 18.1426 27.5305 18.1436Z" fill="#28574E"/>
<path d="M27.5306 22.4363C27.3427 22.4362 27.1599 22.3749 27.0099 22.2616C26.8599 22.1483 26.751 21.9892 26.6995 21.8085C26.6605 21.6744 25.7092 18.528 23.067 18.8005C22.8387 18.8234 22.6106 18.7547 22.4329 18.6094C22.2552 18.4642 22.1425 18.2543 22.1196 18.026C22.0966 17.7976 22.1653 17.5695 22.3106 17.3918C22.4558 17.2142 22.6657 17.1014 22.8941 17.0785C26.1805 16.7525 27.9042 19.7207 28.3591 21.3362C28.39 21.4456 28.399 21.5599 28.3856 21.6727C28.3723 21.7855 28.3369 21.8945 28.2814 21.9936C28.2259 22.0927 28.1514 22.18 28.0622 22.2503C27.973 22.3206 27.8708 22.3727 27.7615 22.4035C27.6864 22.425 27.6087 22.4361 27.5306 22.4363Z" fill="#28574E"/>
<path d="M17.7904 29.3173C15.6263 29.3151 13.5515 28.4545 12.0211 26.9244C10.4907 25.3943 9.6297 23.3197 9.62695 21.1556C9.62695 20.9455 9.63474 20.737 9.6503 20.532C9.65702 20.4174 9.68649 20.3053 9.737 20.2022C9.78751 20.0991 9.85804 20.007 9.94449 19.9315C10.0309 19.8559 10.1316 19.7983 10.2405 19.7621C10.3494 19.7258 10.4645 19.7116 10.579 19.7202C10.6935 19.7289 10.8051 19.7603 10.9073 19.8126C11.0096 19.8648 11.1004 19.9369 11.1745 20.0246C11.2485 20.1123 11.3044 20.2139 11.3388 20.3235C11.3732 20.433 11.3855 20.5483 11.3748 20.6626C11.3627 20.8252 11.3567 20.9896 11.3567 21.1556C11.3569 22.4778 11.7645 23.7677 12.5241 24.8499C13.2836 25.9321 14.3581 26.754 15.6014 27.2038C16.8447 27.6535 18.1964 27.7092 19.4725 27.3633C20.7486 27.0174 21.8871 26.2867 22.7331 25.2706C22.8058 25.1834 22.895 25.1112 22.9955 25.0584C23.0961 25.0056 23.2061 24.9731 23.3192 24.9628C23.4323 24.9525 23.5463 24.9645 23.6548 24.9983C23.7633 25.032 23.864 25.0868 23.9513 25.1595C24.0386 25.2322 24.1107 25.3214 24.1635 25.4219C24.2163 25.5225 24.2488 25.6325 24.2591 25.7456C24.2695 25.8587 24.2574 25.9727 24.2236 26.0812C24.1899 26.1896 24.1351 26.2904 24.0624 26.3777C23.2973 27.2985 22.3385 28.0393 21.2545 28.5474C20.1704 29.0555 18.9876 29.3184 17.7904 29.3173Z" fill="#28574E"/>
<path d="M12.6739 34.3468C12.4445 34.349 12.2237 34.26 12.0599 34.0993C11.8962 33.9386 11.803 33.7195 11.8008 33.4902C11.7986 33.2608 11.8877 33.0399 12.0483 32.8762C12.209 32.7125 12.4281 32.6192 12.6575 32.6171C16.5632 32.541 17.608 28.3974 17.6512 28.221C17.7063 28.0001 17.8462 27.8099 18.0406 27.6916C18.235 27.5732 18.4682 27.5363 18.6897 27.5887C18.9112 27.6412 19.103 27.7788 19.2237 27.9718C19.3443 28.1648 19.3841 28.3976 19.3342 28.6197C18.881 30.5604 16.8988 34.2603 12.6912 34.3468H12.6739Z" fill="#28574E"/>
</svg>
