<svg width="62" height="58" viewBox="0 0 62 58" fill="none" xmlns="http://www.w3.org/2000/svg">
<path d="M39.1953 0.924805C43.1199 -0.418317 48.215 -0.338986 54.2256 3.80762C57.7587 6.24474 60.0372 9.36552 61.0439 13.0664C61.9883 16.5381 61.8167 20.532 60.4941 24.9678L60.2148 25.8604C58.7659 30.2789 56.2295 34.5858 52.6729 38.6621C48.482 43.4669 40.3951 52.1146 32.4189 57.2012L31.6475 57.6816C31.4554 57.7975 31.2367 57.8564 31.0195 57.8564C30.8026 57.8564 30.5851 57.7979 30.3916 57.6807C22.17 52.6738 13.6933 43.6196 9.36719 38.6611C7.57319 36.6047 6.02337 34.4703 4.76367 32.3213C4.4269 31.7453 4.62003 31.0057 5.19434 30.6689C5.73057 30.3544 6.41628 30.5033 6.77832 30.9971L6.8457 31.0996C8.03025 33.1225 9.49073 35.1335 11.1846 37.0752C15.2852 41.7745 23.2052 50.2551 30.9375 55.1777L31.0186 55.2285L31.0986 55.1777C38.8295 50.2551 46.7512 41.7745 50.8506 37.0752C54.1892 33.2478 56.5691 29.2227 57.9199 25.1074C59.3196 20.8455 59.6008 17.0826 58.7549 13.8486C57.9082 10.6119 55.9357 7.91962 52.8545 5.79492C47.3138 1.97037 42.6954 2.07286 39.2109 3.4834C36.1722 4.71352 34.0118 6.93157 32.8574 8.3584L32.4248 8.91602C32.1011 9.35294 31.5658 9.57802 31.0205 9.57812C30.4751 9.57812 29.9387 9.35314 29.6143 8.91602C28.6269 7.58431 26.3024 4.88815 22.8301 3.48242C19.3458 2.07191 14.7269 1.96975 9.18359 5.79492C6.5467 7.61422 4.72109 9.86232 3.72266 12.5215C2.7246 15.1799 2.55691 18.2385 3.21777 21.6719C3.34313 22.326 2.91607 22.958 2.26074 23.085C1.64647 23.2037 1.05326 22.835 0.876953 22.248L0.84668 22.1279C0.0936976 18.2159 0.323634 14.6812 1.49414 11.6045C2.66448 8.52842 4.77926 5.90051 7.8125 3.80762C13.823 -0.338902 18.918 -0.418947 22.8428 0.923828C26.7768 2.26988 29.5542 5.05244 30.9043 6.66016L31.0195 6.79688L31.1348 6.66016C32.4842 5.05378 35.2613 2.27121 39.1953 0.924805Z" fill="#28574E" stroke="#F9F9F9" stroke-width="0.3"/>
<path d="M17.5176 12.3062H17.5205C18.0094 12.3482 18.4206 12.6811 18.5664 13.1431L18.5918 13.2368L23.1318 32.8208L23.4229 32.8257L27.4033 17.9468C27.546 17.4132 27.988 17.0545 28.584 17.0513C29.1352 17.0574 29.6117 17.4376 29.7422 17.9751L31.5703 25.5317L31.5986 25.646H40.374C41.0413 25.6462 41.5808 26.1869 41.5811 26.853C41.5811 27.5193 41.0414 28.0608 40.374 28.061H30.6475C30.1247 28.061 29.6656 27.7255 29.502 27.2368L29.4736 27.1372L28.6475 23.7212L28.3564 23.7173L24.3486 38.7017V38.7026C24.21 39.2292 23.7312 39.5961 23.1855 39.5962H23.165C22.6108 39.5865 22.1343 39.2012 22.0088 38.6616L17.1846 17.856L17.0811 17.4048L16.9004 17.8315L12.9863 27.0981C12.7965 27.5447 12.3585 27.8354 11.875 27.8354H1.35742C0.69122 27.8354 0.15055 27.2946 0.150391 26.6284C0.150391 25.9621 0.691122 25.4214 1.35742 25.4214H11.0742L11.1133 25.3296L16.3047 13.0396C16.5097 12.5556 16.9989 12.2522 17.5176 12.3062Z" fill="#1E232F" stroke="#F9F9F9" stroke-width="0.3"/>
</svg>
