<svg width="58" height="57" viewBox="0 0 58 57" fill="none" xmlns="http://www.w3.org/2000/svg">
<path d="M19.2734 22.918C19.187 24.6044 18.5872 27.0551 17.1123 29.1523C15.6384 31.2481 13.2896 32.992 9.69434 33.2705C6.08581 33.5503 4.15321 34.6475 3.12109 35.71C2.34742 36.5065 2.08622 37.2775 2 37.6533L1.95898 37.8838V37.8936L1.96289 54.6055V54.7061H2.0625L25.4346 54.6992H25.5908L25.5254 54.5576C25.1054 53.6418 25.0084 53.2248 24.998 52.6895C24.9928 52.4157 25.0099 52.1132 25.0225 51.6934C25.035 51.2758 25.0422 50.7494 25.0156 50.0381C25.0149 49.233 25.0157 48.3236 25.0156 47.3682C25.0156 46.4111 25.0155 45.4073 25.0146 44.417C25.0127 42.5303 25.013 40.6329 25.0098 39.4697V39.3652L24.9043 39.3701C24.6361 39.3837 24.3672 39.374 24.1006 39.3418H24.0947C23.142 39.2795 22.4392 38.9537 21.918 38.4678C21.3952 37.9803 21.0485 37.3253 20.8213 36.5947C20.366 35.1304 20.396 33.389 20.418 32.1572V32.1553C20.4155 30.9238 20.367 29.4166 20.7227 28.0811C21.0758 26.7549 21.8247 25.6089 23.4141 25.0811C23.78 25.0137 24.1513 24.9793 24.5234 24.9775L24.6299 24.9766L24.623 24.8701C24.3304 20.529 23.951 19.241 23.8145 18.9053L23.8066 18.8848L23.79 18.8701L23.7158 18.793C23.6467 18.7125 23.5918 18.6201 23.5537 18.5205L23.5391 18.4824L23.502 18.4658L22.9795 18.2217C21.7637 17.6432 20.5773 17.0043 19.4248 16.3076L19.2734 16.2158V22.918ZM26.8789 51.0244C26.9 51.4489 26.8921 51.7819 26.8818 52.0596C26.8716 52.335 26.8586 52.5642 26.8701 52.7725C26.894 53.2033 27.0232 53.5466 27.459 54.0898V54.0908L27.4688 54.0996C27.7515 54.3702 28.1074 54.5525 28.4922 54.624C28.8768 54.6955 29.2738 54.6536 29.6348 54.5029C29.9959 54.3521 30.3058 54.0994 30.5254 53.7754C30.7449 53.4514 30.8648 53.07 30.8711 52.6787V50.9199H26.873L26.8789 51.0244ZM26.877 45.4033C26.8774 46.6357 26.8777 47.8651 26.8779 48.957V49.0576H30.8721V48.957C30.8723 47.8646 30.8725 46.6349 30.873 45.4033V45.3037H26.877V45.4033ZM25.5068 27.0049C25.1148 26.8114 24.6134 26.7981 23.9092 26.8828L23.9004 26.8838L23.8916 26.8867C23.0618 27.147 22.6541 27.9027 22.4561 28.8564C22.3073 29.5725 22.2726 30.4187 22.2725 31.292L22.2812 32.1709C22.2525 33.7836 22.3101 35.0747 22.5898 35.9785C22.7304 36.4324 22.9296 36.7967 23.208 37.0547C23.488 37.314 23.8415 37.4595 24.2783 37.4883C25.0355 37.5408 25.4522 37.4597 25.7441 37.2256C25.8881 37.1101 25.9953 36.9623 26.0977 36.793C26.1488 36.7082 26.2 36.6158 26.2539 36.5186L26.4307 36.207L26.4365 36.1953C27.0199 34.8207 27.9448 34.1845 28.8379 34.1953C29.7321 34.2063 30.6438 34.8662 31.2002 36.1924V36.1934L31.2061 36.2031C31.3296 36.4244 31.4341 36.6257 31.5391 36.7939C31.6451 36.964 31.7574 37.11 31.9023 37.2246C32.1963 37.457 32.6009 37.541 33.2949 37.4951C33.7466 37.4649 34.1114 37.318 34.4004 37.0586C34.6879 36.8004 34.8933 36.4366 35.0381 35.9834C35.3264 35.0811 35.3852 33.795 35.3574 32.1934C35.3787 31.0188 35.3829 29.8264 35.1846 28.8662C34.9865 27.9076 34.5785 27.1467 33.7471 26.8867L33.7363 26.8828L33.7256 26.8818C33.1971 26.8363 32.8184 26.8143 32.5127 26.8682C32.2373 26.9167 32.0236 27.0265 31.8105 27.2236L31.7188 27.3125L31.7129 27.3193C31.5101 27.5699 31.3418 27.8466 31.2119 28.1416L31.2109 28.1436C30.6735 29.4449 29.7591 30.1214 28.8555 30.1455C27.9548 30.1693 27.0167 29.5458 26.4268 28.1416L26.4248 28.1387C26.1669 27.5686 25.9025 27.2002 25.5068 27.0049ZM31.7363 19.3525C29.8678 19.8781 27.892 19.8891 26.0176 19.3848L25.8672 19.3447L25.8936 19.499C26.2277 21.4464 26.4363 23.4136 26.5195 25.3877L26.5225 25.4473L26.5762 25.4727C27.1391 25.7451 27.4875 26.2451 27.792 26.7832C27.9406 27.0458 28.0863 27.3319 28.2334 27.582C28.383 27.8363 28.5449 28.0743 28.7422 28.2617L28.7822 28.2998L28.8359 28.2861C28.9013 28.2694 28.9591 28.2294 29.0117 28.1787C29.0646 28.1277 29.1176 28.0603 29.1719 27.9795C29.2261 27.8987 29.2846 27.8008 29.3477 27.6865L29.5537 27.2939L29.5576 27.2861C29.8825 26.4964 30.4528 25.8319 31.1846 25.3916L31.2305 25.3643L31.2334 25.3105C31.3166 23.3509 31.5265 21.3983 31.8623 19.4658L31.8896 19.3096L31.7363 19.3525ZM13.7246 7.34863C13.7197 7.48393 13.6692 10.5521 19.0381 13.8955H19.0391C22.1196 15.7836 24.0734 16.7746 25.5215 17.2939C26.7926 17.7498 27.6728 17.8417 28.5771 17.8604L28.9678 17.8652C30.6286 17.8652 32.733 17.5482 38.5996 13.8945C43.9628 10.5547 43.9184 7.49086 43.916 7.41699V7.41309L43.9131 7.35254L43.915 2.0625L43.916 1.96289H13.7246V7.34863ZM30.8799 38.7637L30.8398 38.7334C30.2705 38.296 29.8253 37.7173 29.5488 37.0547V37.0537L29.5459 37.0469L29.3438 36.665C29.2815 36.5525 29.2238 36.455 29.1699 36.374C29.1161 36.2931 29.0644 36.2249 29.0127 36.1729C28.9615 36.1214 28.9049 36.0799 28.8418 36.0605L28.791 36.0449L28.749 36.0791C28.5927 36.207 28.4602 36.3829 28.3408 36.5771C28.2212 36.7717 28.1107 36.9918 28 37.209C27.7751 37.65 27.5511 38.0774 27.2432 38.3408L27.3076 38.417L27.2422 38.3408L27.2334 38.3496C27.1331 38.4607 27.0248 38.5644 26.9082 38.6582L26.8701 38.6885V38.7363C26.8728 39.6189 26.8748 41.3681 26.876 43.3408V43.4404H30.874V43.3408C30.8752 41.4073 30.8763 39.6949 30.8789 38.8135L30.8799 38.7637ZM55.7871 37.7871L55.7861 37.7803V37.7744C55.7857 37.7712 55.7849 37.7668 55.7842 37.7617C55.7827 37.7515 55.7803 37.7377 55.7773 37.7207C55.7713 37.6864 55.7623 37.6387 55.748 37.5801C55.7196 37.4629 55.6707 37.3007 55.5908 37.1074C55.4308 36.7204 55.1429 36.2088 54.6279 35.6836C53.5964 34.6317 51.6643 33.5347 48.0557 33.2549C44.4604 32.9763 42.1115 31.2319 40.6377 29.1426C39.2538 27.1806 38.641 24.9133 38.5 23.2695L38.4785 22.9492L38.4775 16.3271V16.1504L38.3252 16.2422C37.0112 17.0392 35.6539 17.7626 34.2598 18.4092L34.2188 18.4277L34.2061 18.4707C34.1597 18.6235 34.0741 18.7615 33.958 18.8711L33.9424 18.8867L33.9346 18.9062C33.7984 19.2409 33.4194 20.5281 33.126 24.876L33.1191 24.9805L33.2246 24.9824C33.5591 24.9874 33.8926 25.0201 34.2217 25.0801C35.8143 25.6087 36.564 26.7569 36.917 28.0859C37.2723 29.4241 37.2225 30.9339 37.2197 32.168V32.1729C37.2904 33.5313 37.2559 35.4052 36.6699 36.9043C36.3775 37.6522 35.9498 38.3012 35.335 38.748C34.7214 39.1939 33.9125 39.4456 32.8457 39.3838L32.7402 39.377V39.4834C32.7361 41.822 32.734 46.8574 32.7344 49.9883C32.7076 50.7052 32.7149 51.2375 32.7275 51.6611C32.7402 52.0875 32.758 52.396 32.7529 52.6748C32.743 53.2202 32.6451 53.6423 32.2246 54.5547L32.1592 54.6973H32.3154L55.6875 54.6895H55.7871V37.7871ZM17.4111 15.0488L17.3662 15.0195C11.6132 11.1433 11.8541 7.4129 11.8662 7.27344V7.26367L11.8623 1.03125C11.8623 0.908995 11.8859 0.787765 11.9326 0.674805C11.9794 0.561912 12.0484 0.459476 12.1348 0.373047C12.2212 0.286569 12.3245 0.217686 12.4375 0.170898C12.5502 0.124274 12.671 0.099636 12.793 0.0996094H44.8467L44.9385 0.105469C45.1513 0.127809 45.3513 0.22237 45.5039 0.375C45.6565 0.527697 45.7512 0.727531 45.7734 0.94043L45.7783 1.03223L45.7764 7.33398V7.46777C45.76 8.28917 45.3572 11.5537 40.3828 14.9473L40.3389 14.9766V22.9023L40.3398 22.9082C40.3485 23.0466 40.479 25.0222 41.5225 27.0361C42.5683 29.0546 44.5333 31.1136 48.1992 31.3975C52.7061 31.7473 55.0604 33.2874 56.291 34.7529C57.5223 36.2194 57.6405 37.6255 57.6475 37.7324L57.6504 55.6211L57.6455 55.7129C57.6243 55.9261 57.5297 56.1265 57.377 56.2793C57.2024 56.4538 56.9656 56.5526 56.7188 56.5527L1.03125 56.5674C0.784959 56.5656 0.549245 56.4681 0.375 56.2939C0.200528 56.1196 0.101263 55.8834 0.0996094 55.6367V37.8164C0.107809 37.6765 0.2268 36.2529 1.45898 34.7773C2.68982 33.3035 5.04392 31.7639 9.55078 31.4141C13.2168 31.1302 15.1815 29.0704 16.2275 27.0449C17.0104 25.529 17.2803 24.0309 17.3701 23.3066L17.4121 22.8682V22.8623L17.4111 15.1025V15.0488Z" fill="#28574E" stroke="#F9F9F9" stroke-width="0.2"/>
</svg>
