<svg width="70" height="69" viewBox="0 0 70 69" fill="none" xmlns="http://www.w3.org/2000/svg">
<path d="M63.296 29.1263C62.5176 28.5498 62.096 27.6104 62.2257 26.6709C62.3771 25.5073 62.4095 24.5038 62.3338 23.7138C62.0203 20.5751 59.7284 14.5434 54.9068 11.33C54.8852 10.54 54.6582 8.97065 53.3068 7.20917C50.4852 3.56876 44.5825 1.18808 35.7609 0.141869C28.8203 -0.669482 23.0906 2.08484 18.496 6.21633C18.0419 4.61498 17.1447 3.34457 15.9014 2.55457C14.0203 1.3589 11.5771 1.31619 9.01492 2.44781C6.57168 3.52606 4.2906 5.55444 2.5933 8.1593C-0.985078 13.6466 -0.844538 20.0627 2.91762 22.4647C3.22033 22.6569 3.54465 22.8063 3.87979 22.9451C3.91222 22.9558 3.93384 22.9771 3.96627 22.9878C3.98789 22.9985 4.00952 22.9878 4.02033 22.9985C4.70141 23.244 5.42573 23.3828 6.20411 23.3828C6.53925 23.3828 6.896 23.3508 7.24195 23.2974C5.15546 30.5035 6.40952 38.2327 10.9176 44.147C13.0474 46.9547 15.7717 49.2179 19.0041 50.894C18.9392 52.9971 18.4203 61.6338 14.5284 67.057C14.269 67.42 14.3555 67.9217 14.723 68.1779C14.8636 68.274 15.0257 68.3274 15.1879 68.3274C15.4474 68.3274 15.696 68.21 15.8474 67.9858C20.1933 61.9327 20.5933 52.5808 20.6365 50.7446C21.6744 49.6236 25.7392 44.7448 24.9501 37.2505C24.5933 33.845 25.4257 31.1013 27.3609 29.3185C29.1446 27.6744 31.7284 27.0019 34.4419 27.4609C36.4744 27.8025 37.5122 29.2971 38.4311 30.6102C39.1446 31.6351 39.8257 32.6066 40.9068 32.7347C41.6095 32.8094 42.3338 32.4998 43.1122 31.7846C44.0744 30.9092 44.6798 29.6388 44.8203 28.2189C45.0149 26.2973 45.696 22.8917 48.1284 21.6107C48.3122 21.5146 48.4852 21.3971 48.6582 21.2797C48.6582 21.4292 48.7014 21.5893 48.7879 21.7174C49.0041 22.027 49.2311 22.3259 49.469 22.6142C49.6311 22.817 49.869 22.9131 50.1068 22.9131C50.2798 22.9131 50.4636 22.8597 50.6149 22.7423C50.9717 22.4647 51.0257 21.9629 50.7446 21.6107C50.5284 21.3438 50.323 21.0769 50.1176 20.7886C49.9771 20.5965 49.7717 20.4897 49.5446 20.4577C50.3555 19.4969 50.7555 18.2265 50.669 16.7319C50.5609 14.8529 51.7933 13.2302 53.7392 12.6965C53.8041 12.6751 53.869 12.6538 53.9446 12.6324C58.096 15.3974 60.3879 20.81 60.6906 23.8739C60.7446 24.4611 60.723 25.219 60.6365 26.0838C60.4852 26.1265 60.3447 26.1692 60.1933 26.2012C59.7501 26.2866 59.4582 26.7029 59.5446 27.1406C59.6203 27.525 59.9555 27.7919 60.3446 27.7919C60.3987 27.7919 60.4419 27.7919 60.496 27.7812C60.5501 27.7705 60.5933 27.7492 60.6474 27.7385C60.8419 28.7954 61.4257 29.7562 62.323 30.4181C66.8744 33.7596 67.8041 35.4784 67.7825 36.3324C67.7609 37.0156 67.0798 37.5174 66.0203 38.2113L65.7284 38.4035C64.6257 39.1401 63.9987 39.9728 63.8906 40.8589C63.7609 41.8624 64.3338 42.535 64.3879 42.599C64.896 43.1755 65.123 43.6986 65.0582 44.1363C64.9717 44.7342 64.3555 45.1932 63.9987 45.4174C63.6636 45.6309 63.4582 45.9832 63.4582 46.3675C63.4473 46.7519 63.6419 47.1148 63.9771 47.339C64.3122 47.5632 64.5717 48.0009 64.5392 48.2678C64.5176 48.4173 64.3663 48.5454 64.0744 48.6521C63.35 48.919 62.8095 49.4101 62.5176 50.0613C61.9987 51.2036 62.3879 52.5061 62.5176 52.8904C62.7555 54.7479 62.3987 56.0611 61.4365 56.7977C61.0149 57.1286 60.4744 57.3208 59.8798 57.4489C59.7609 57.2674 59.5771 57.1286 59.3501 57.0752C58.9609 57.0005 58.5933 57.2247 58.4528 57.577C56.7771 57.5877 51.923 55.9436 51.3068 55.7515C51.296 55.7515 51.296 55.7408 51.296 55.7408C49.0906 54.9935 44.5284 53.0185 41.6852 50.5524C41.8149 50.1254 41.5771 49.6877 41.1446 49.5489C40.9825 49.5062 40.8203 49.5169 40.669 49.5702C39.8257 48.6308 39.2636 47.6273 39.2203 46.6131C39.1987 46.1754 38.8203 45.8124 38.3663 45.8551C37.9122 45.8765 37.5663 46.2501 37.5879 46.6985C37.7933 50.7766 43.3609 54.0434 47.1987 55.8155C47.1663 55.8262 47.1338 55.8369 47.1014 55.8475C44.4528 57.0325 42.1825 60.6623 39.9446 67.2492C39.8041 67.6655 40.0311 68.1246 40.4528 68.2634C40.5392 68.2954 40.6257 68.3061 40.7122 68.3061C41.0474 68.3061 41.3717 68.0925 41.4798 67.7616C43.5338 61.7085 45.5879 58.2923 47.7609 57.3101C48.7338 56.8724 49.696 56.9578 50.669 57.2461C50.7014 57.2567 50.723 57.2674 50.7338 57.2674H50.7446C51.3068 57.4382 56.7987 59.2958 58.9933 59.1677H59.0149C59.0582 59.1677 59.0906 59.157 59.1338 59.1463C60.3555 59.0609 61.5122 58.7406 62.4095 58.0467C63.869 56.9258 64.4311 55.0789 64.0852 52.5701C64.0744 52.5061 64.0636 52.442 64.0419 52.3886C63.9771 52.2071 63.3933 50.5951 64.6149 50.1361C65.7933 49.6877 66.0636 48.8763 66.1068 48.4386C66.1933 47.67 65.8149 46.9227 65.3176 46.4102C65.9014 45.9405 66.4744 45.2679 66.6149 44.3605C66.7555 43.4317 66.3987 42.4816 65.5663 41.5315C65.5663 41.5315 65.4257 41.3286 65.4582 41.0511C65.5122 40.6454 65.9122 40.1757 66.5933 39.7273L66.8744 39.5458C67.9663 38.8305 69.3176 37.9444 69.3609 36.3751C69.4582 34.4962 67.5771 32.265 63.296 29.1263ZM3.95546 9.02403C5.4906 6.67538 7.52303 4.86052 9.67438 3.91038C11.7176 3.01363 13.6095 3.01363 15.0149 3.91038C15.0365 3.92106 15.0582 3.94241 15.0798 3.95308C11.7501 7.09173 8.70141 11.0738 6.02033 15.8138C5.06898 17.4898 4.30141 19.2407 3.70681 21.0342C0.787894 19.0592 0.885192 13.7107 3.95546 9.02403ZM5.20952 21.6534C5.77168 19.9132 6.51762 18.2158 7.43654 16.5931C10.0419 11.9705 12.9933 8.1166 16.2149 5.08471C16.6582 5.7466 16.9609 6.56862 17.1014 7.50808C13.9987 10.6361 11.469 14.3405 9.50141 17.8315C8.82033 19.0378 8.25816 20.2762 7.7933 21.5359C7.04735 21.7388 6.12844 21.8455 5.20952 21.6534ZM49.0582 16.8173C49.123 17.9062 48.8744 19.3794 47.3717 20.1801C44.269 21.8135 43.4257 25.8169 43.2095 28.0481C43.1014 29.0729 42.6798 29.9804 42.0095 30.5889C41.4582 31.0906 41.1771 31.1334 41.0906 31.112C40.7446 31.0693 40.2257 30.3327 39.7717 29.6815C38.7771 28.2616 37.4257 26.3186 34.7122 25.8596C31.4906 25.3151 28.3987 26.1371 26.2474 28.1335C24.6257 29.6281 22.8095 32.4465 23.3284 37.4C23.9879 43.7093 20.7771 48.0756 19.6419 49.3994C16.669 47.8408 14.1717 45.7377 12.2149 43.1648C6.93925 36.2257 6.44195 26.5962 10.9392 18.6215C12.8852 15.1839 15.3825 11.5221 18.4419 8.47957C18.5176 8.42619 18.5933 8.36214 18.6474 8.27673C22.6149 4.41214 27.5122 1.58308 33.3609 1.58308C34.0852 1.58308 34.8203 1.62579 35.5663 1.71119C45.923 2.9389 50.1933 5.85335 51.9663 8.09525C53.0041 9.39768 53.2419 10.54 53.2852 11.1485C50.6473 11.8958 48.9068 14.2124 49.0582 16.8173Z" fill="#28574E"/>
<path d="M57.5338 40.2825L56.6581 39.706C56.2798 39.4604 55.7825 39.5672 55.5338 39.9302C55.2852 40.3038 55.3825 40.7949 55.7608 41.0404L56.6365 41.6169C56.7771 41.713 56.9284 41.7557 57.0906 41.7557C57.35 41.7557 57.6095 41.6276 57.7717 41.3927C58.0095 41.0298 57.9014 40.528 57.5338 40.2825Z" fill="#1E232F"/>
<path d="M55.3927 47.2431L56.2035 47.7769C56.2143 47.7769 56.2792 47.8302 56.29 47.8302C56.4197 47.905 56.5603 47.9477 56.69 47.9477C56.9603 47.9477 57.2089 47.8089 57.3711 47.5633C57.6089 47.1897 57.4792 46.6879 57.1008 46.4424L56.29 45.9086C55.9116 45.6631 55.4143 45.7698 55.1657 46.1328C54.917 46.5065 55.0251 47.0082 55.3927 47.2431Z" fill="#1E232F"/>
<path d="M59.7384 43.8481C59.8898 44.083 60.16 44.2111 60.4195 44.2111C60.5708 44.2111 60.7222 44.1684 60.8627 44.083C61.2411 43.8374 61.3492 43.3463 61.1006 42.9727C60.8519 42.599 60.5384 42.2788 60.16 42.0226C59.7925 41.7663 59.2844 41.8517 59.0249 42.2254C58.7654 42.5884 58.8627 43.0901 59.2303 43.3463C59.4357 43.4638 59.5979 43.6453 59.7384 43.8481Z" fill="#1E232F"/>
<path d="M43.567 35.6493C43.1346 35.5746 42.7021 35.8522 42.6156 36.2792C42.5724 36.5034 42.5508 36.7276 42.5508 36.9518C42.5508 37.176 42.5724 37.4002 42.6156 37.6137C42.6913 37.998 43.0265 38.2649 43.4156 38.2649C43.4697 38.2649 43.5238 38.2649 43.567 38.2542C44.0102 38.1688 44.3021 37.7525 44.2156 37.3148C44.194 37.1973 44.1832 37.0799 44.1832 36.9518C44.1832 36.8344 44.194 36.7062 44.2156 36.5888C44.2913 36.1511 44.0102 35.7348 43.567 35.6493Z" fill="#1E232F"/>
<path d="M59.0036 47.5419C59.1657 47.7661 59.4144 47.8942 59.6739 47.8942C59.836 47.8942 59.9874 47.8515 60.1279 47.7554C60.5063 47.4992 60.8198 47.1789 61.0901 46.7839L61.1009 46.7626C61.3387 46.3889 61.2198 45.9085 60.8414 45.6736C60.463 45.4388 59.9657 45.5455 59.7171 45.9192C59.5766 46.122 59.4036 46.2928 59.209 46.4316C58.8522 46.6772 58.7549 47.1789 59.0036 47.5419Z" fill="#1E232F"/>
<path d="M44.9385 40.3997L45.8141 40.9762C45.9547 41.0723 46.106 41.115 46.2682 41.115C46.5276 41.115 46.7871 40.9869 46.9493 40.752C47.1979 40.3784 47.1006 39.8873 46.7222 39.6418L45.8358 39.0546C45.4574 38.8091 44.9601 38.9158 44.7114 39.2788C44.4628 39.6525 44.5601 40.1542 44.9385 40.3997Z" fill="#1E232F"/>
<path d="M51.9122 44.9584L52.7879 45.5349C52.9284 45.631 53.0798 45.6737 53.2419 45.6737C53.5014 45.6737 53.7609 45.5456 53.923 45.3107C54.1717 44.9371 54.0744 44.446 53.696 44.2004L52.8203 43.6239C52.4419 43.3784 51.9446 43.4852 51.696 43.8481C51.4365 44.2218 51.5338 44.7129 51.9122 44.9584Z" fill="#1E232F"/>
<path d="M49.6852 35.1474C49.3068 34.9018 48.8095 35.0086 48.5609 35.3716C48.3122 35.7452 48.4095 36.2363 48.7879 36.4818L49.6636 37.0583C49.8041 37.1544 49.9554 37.1971 50.1176 37.1971C50.3771 37.1971 50.6365 37.069 50.7987 36.8341C51.0473 36.4605 50.95 35.9694 50.5717 35.7239L49.6852 35.1474Z" fill="#1E232F"/>
<path d="M46.6573 33.5249C46.2032 33.4502 45.7492 33.4715 45.3059 33.5676C44.8627 33.6637 44.5924 34.0907 44.6897 34.5284C44.7762 34.9021 45.1113 35.1583 45.4789 35.1583C45.533 35.1583 45.5978 35.1476 45.6519 35.1369C45.8897 35.0836 46.1384 35.0729 46.3762 35.1156C46.8194 35.1796 47.2411 34.8914 47.3167 34.4537C47.3924 34.0053 47.1005 33.5996 46.6573 33.5249Z" fill="#1E232F"/>
<path d="M48.1939 41.5635C47.9452 41.9371 48.0425 42.4282 48.4209 42.6737L49.2966 43.2396C49.4371 43.3356 49.5884 43.3783 49.7506 43.3783C50.0101 43.3783 50.2695 43.2502 50.4317 43.0154C50.6803 42.6417 50.583 42.1506 50.2047 41.9051L49.329 41.3393C48.9506 41.0937 48.4425 41.2005 48.1939 41.5635Z" fill="#1E232F"/>
<path d="M53.1776 37.4319C52.7992 37.1863 52.3019 37.2824 52.0532 37.6561C51.8046 38.0297 51.9019 38.5208 52.2803 38.7663L53.1559 39.3428C53.2965 39.4389 53.4478 39.4816 53.61 39.4816C53.8694 39.4816 54.1289 39.3535 54.2911 39.1186C54.5397 38.745 54.4424 38.2539 54.064 38.0084L53.1776 37.4319Z" fill="#1E232F"/>
<path d="M50.625 50.6483C50.225 50.4561 49.7385 50.6163 49.5331 51.022C49.3385 51.417 49.5007 51.8974 49.9115 52.1002L50.798 52.5272C50.9169 52.5806 51.0358 52.6126 51.1547 52.6126C51.4574 52.6126 51.7493 52.4418 51.8899 52.1643C52.0845 51.7693 51.9223 51.2888 51.5115 51.086L50.625 50.6483Z" fill="#1E232F"/>
<path d="M47.0684 48.951C46.6684 48.7589 46.1819 48.919 45.9765 49.3247C45.7819 49.7197 45.944 50.2001 46.3549 50.4029L47.2413 50.83C47.3603 50.8833 47.4792 50.9154 47.5981 50.9154C47.9008 50.9154 48.1927 50.7446 48.3332 50.467C48.5278 50.072 48.3657 49.5916 47.9549 49.3887L47.0684 48.951Z" fill="#1E232F"/>
<path d="M53.0899 52.7198C52.8953 53.1148 53.0682 53.5952 53.4682 53.7981L54.3547 54.2251C54.4736 54.2785 54.5926 54.3105 54.7115 54.3105C55.0142 54.3105 55.3061 54.1397 55.4466 53.8621C55.6412 53.4671 55.4682 52.9867 55.0682 52.7839L54.1818 52.3568C53.7709 52.154 53.2845 52.3248 53.0899 52.7198Z" fill="#1E232F"/>
<path d="M42.2365 48.6202C42.3122 49.0579 42.7446 49.3462 43.1879 49.2714C43.4041 49.2287 43.6419 49.2287 43.869 49.2714C43.923 49.2821 43.9771 49.2821 44.0203 49.2821C44.3987 49.2821 44.7446 49.0152 44.8203 48.6309C44.9068 48.1932 44.6149 47.7768 44.1717 47.6914C43.7392 47.606 43.3068 47.606 42.896 47.6808C42.4528 47.7662 42.1609 48.1825 42.2365 48.6202Z" fill="#1E232F"/>
<path d="M58.096 54.2248L57.7285 54.0433C57.3285 53.8512 56.842 54.0113 56.6366 54.417C56.442 54.812 56.6041 55.2924 57.015 55.4952L57.3825 55.6767C57.5014 55.7301 57.6204 55.8048 57.7285 55.8902C57.8798 56.0076 58.0528 56.061 58.2258 56.061C58.4636 56.061 58.7123 55.9543 58.8744 55.7514C59.1447 55.3991 59.0798 54.8974 58.7339 54.6198C58.5285 54.4597 58.3231 54.3316 58.096 54.2248Z" fill="#1E232F"/>
<path d="M57.3068 26.1049C56.9933 26.0302 56.669 25.9448 56.3555 25.8273C55.9338 25.6779 55.469 25.8914 55.3176 26.3184C55.1663 26.7348 55.3825 27.1938 55.8149 27.3433C56.1933 27.4714 56.5717 27.5888 56.9501 27.6742C57.0149 27.6849 57.069 27.6956 57.1338 27.6956C57.5014 27.6956 57.8365 27.4394 57.923 27.0764C58.0203 26.6387 57.7501 26.201 57.3068 26.1049Z" fill="#1E232F"/>
<path d="M52.896 23.7989C52.5501 23.5107 52.042 23.5534 51.7501 23.895C51.4582 24.2366 51.5014 24.7384 51.8474 25.0266C52.1393 25.2722 52.442 25.507 52.7447 25.7206C52.8852 25.8273 53.0582 25.87 53.2203 25.87C53.469 25.87 53.7176 25.7526 53.8798 25.5391C54.1393 25.1761 54.0636 24.6743 53.696 24.4181C53.4366 24.226 53.1663 24.0231 52.896 23.7989Z" fill="#1E232F"/>
</svg>
