<svg width="63" height="56" viewBox="0 0 63 56" fill="none" xmlns="http://www.w3.org/2000/svg">
<path d="M36.9083 45.3339C35.9357 47.1942 35.4099 49.283 35.4099 51.4336V54.8776H27.2824V51.4336C27.2824 47.4884 25.513 43.7513 22.4614 41.2508C19.5422 38.8587 19.3605 34.4564 22.073 31.832H22.0731C24.0796 29.8908 24.3852 26.782 22.795 24.4873L19.5843 19.854C14.6062 12.6701 19.7477 2.85205 28.4878 2.85205H34.2042C42.9443 2.85205 48.0858 12.6701 43.1078 19.854L39.8972 24.4873C38.307 26.7821 38.6125 29.8908 40.619 31.8322C40.8295 32.0358 41.0226 32.2502 41.1983 32.4735" stroke="#28574E" stroke-width="1.5" stroke-miterlimit="10"/>
<path d="M31.347 35.1597V27.628C31.347 25.0754 30.6438 22.5589 29.2431 20.4252C29.1822 20.3324 29.1201 20.2402 29.0567 20.1488L25.8461 15.5155C24.8819 14.1241 25.3035 12.8364 25.6405 12.1928C25.9776 11.5491 26.7959 10.4692 28.4887 10.4692H34.2052C35.898 10.4692 36.7162 11.5491 37.0534 12.1928C37.3906 12.8364 37.8121 14.1241 36.8478 15.5155L33.6372 20.1488C33.5737 20.2403 33.5115 20.3326 33.4506 20.4254C32.05 22.5592 31.347 25.0756 31.347 27.6278V35.1597Z" stroke="#28574E" stroke-width="1.5" stroke-miterlimit="10"/>
<path d="M3.55661 13.2506L1.58655 9.89487C-0.110815 7.00364 0.857076 3.28379 3.74831 1.58643C6.63954 -0.110937 10.3594 0.856953 12.0568 3.74818L12.6858 4.81967C13.9233 6.92773 16.1849 8.22252 18.6294 8.22252" stroke="#28574E" stroke-width="1.5" stroke-miterlimit="10"/>
<path d="M6.03625 21.2915C8.31497 21.2915 10.1622 19.4442 10.1622 17.1655C10.1622 14.8868 8.31497 13.0396 6.03625 13.0396C3.75754 13.0396 1.91028 14.8868 1.91028 17.1655C1.91028 19.4442 3.75754 21.2915 6.03625 21.2915Z" stroke="#28574E" stroke-width="1.5" stroke-miterlimit="10"/>
<path d="M56.6554 21.2915C58.9341 21.2915 60.7814 19.4442 60.7814 17.1655C60.7814 14.8868 58.9341 13.0396 56.6554 13.0396C54.3767 13.0396 52.5294 14.8868 52.5294 17.1655C52.5294 19.4442 54.3767 21.2915 56.6554 21.2915Z" stroke="#28574E" stroke-width="1.5" stroke-miterlimit="10"/>
<path d="M59.1354 13.2506L61.1054 9.89487C62.8028 7.00364 61.8349 3.28379 58.9437 1.58643C56.0525 -0.110937 52.3326 0.856953 50.6352 3.74818L50.0062 4.81967C48.7686 6.92773 46.5071 8.22252 44.0626 8.22252" stroke="#28574E" stroke-width="1.5" stroke-miterlimit="10"/>
<path d="M49.2251 54.8781C56.2486 54.8781 61.9422 49.1845 61.9422 42.161C61.9422 35.1375 56.2486 29.4438 49.2251 29.4438C42.2016 29.4438 36.5079 35.1375 36.5079 42.161C36.5079 49.1845 42.2016 54.8781 49.2251 54.8781Z" stroke="#1E232F" stroke-width="1.5" stroke-miterlimit="10"/>
<path d="M44.9611 37.9692L53.4173 46.4253" stroke="#1E232F" stroke-width="1.5" stroke-miterlimit="10"/>
<path d="M53.4173 37.9692L44.9611 46.4253" stroke="#1E232F" stroke-width="1.5" stroke-miterlimit="10"/>
</svg>
