<svg width="59" height="63" viewBox="0 0 59 63" fill="none" xmlns="http://www.w3.org/2000/svg">
<path d="M50.2866 7.78173C45.2684 2.76363 38.5964 0 31.4999 0C24.4032 0 17.7312 2.76363 12.7133 7.78173C7.74684 12.7481 4.98874 19.3337 4.93251 26.3485L0.0977501 36.018C-0.11832 36.4502 0.0347501 36.9758 0.449049 37.2244L4.93165 39.9139V54.1849C4.93165 54.6956 5.3457 55.1096 5.85635 55.1096H14.7947V62.0754C14.7947 62.5861 15.2088 63.0001 15.7194 63.0001C16.2301 63.0001 16.6441 62.5861 16.6441 62.0754V54.1849C16.6441 53.6743 16.2301 53.2602 15.7194 53.2602H6.7808V39.3904C6.7808 39.0657 6.61038 38.7646 6.33192 38.5975L2.13455 36.0791L6.6831 26.982C6.74733 26.8535 6.7808 26.7121 6.7808 26.5684C6.7808 12.9383 17.8698 1.84927 31.4999 1.84927C45.1301 1.84927 56.2191 12.9383 56.2191 26.5684C56.2191 34.2277 52.7536 41.3296 46.7112 46.0536C46.487 46.2288 46.356 46.4976 46.356 46.7822V62.0753C46.356 62.5859 46.7699 63 47.2807 63C47.7915 63 48.2054 62.5859 48.2054 62.0753V47.2282C54.4798 42.153 58.0685 34.6494 58.0685 26.5685C58.0683 19.4718 55.3048 12.7998 50.2866 7.78173Z" fill="#28574E"/>
<path d="M40.4316 12.2109C39.0676 12.2109 37.9578 13.3207 37.9578 14.6847C37.9578 15.0793 38.0511 15.4523 38.2162 15.7836L31.4518 22.5479C31.3038 22.696 31.2207 22.8967 31.2207 23.1061V42.4755C31.2207 42.9115 31.5741 43.265 32.0102 43.265C32.4464 43.265 32.7998 42.9115 32.7998 42.4755V23.4332L39.3328 16.9002C39.6641 17.0652 40.037 17.1586 40.4316 17.1586C41.7957 17.1586 42.9054 16.0489 42.9054 14.6848C42.9054 13.3208 41.7957 12.2109 40.4316 12.2109ZM40.4316 15.5795C39.9383 15.5795 39.5368 15.1781 39.5368 14.6846C39.5368 14.1912 39.9382 13.7898 40.4316 13.7898C40.925 13.7898 41.3265 14.1912 41.3265 14.6846C41.3265 15.1781 40.925 15.5795 40.4316 15.5795Z" fill="#1E232F"/>
<path d="M46.3258 29.8957C45.2378 29.8957 44.3123 30.602 43.9818 31.58H39.536V26.8014L42.7005 23.637C43.0318 23.802 43.4048 23.8954 43.7994 23.8954C45.1634 23.8954 46.2732 22.7856 46.2732 21.4216C46.2732 20.0575 45.1634 18.9478 43.7994 18.9478C42.4353 18.9478 41.3255 20.0575 41.3255 21.4216C41.3255 21.8161 41.4189 22.1891 41.5839 22.5204L38.1882 25.9161C38.0401 26.0642 37.957 26.2649 37.957 26.4743V45.8437C37.957 46.2797 38.3105 46.6332 38.7466 46.6332C39.1827 46.6332 39.5361 46.2797 39.5361 45.8437V33.1589H43.9821C44.3124 34.1369 45.2379 34.8432 46.326 34.8432C47.69 34.8432 48.7998 33.7334 48.7998 32.3694C48.7996 31.0054 47.6898 29.8957 46.3258 29.8957ZM43.7994 20.5267C44.2927 20.5267 44.6942 20.9281 44.6942 21.4216C44.6942 21.915 44.2928 22.3164 43.7994 22.3164C43.306 22.3164 42.9045 21.915 42.9045 21.4216C42.9045 20.9281 43.306 20.5267 43.7994 20.5267ZM46.3258 33.2642C45.8324 33.2642 45.431 32.8629 45.431 32.3694C45.431 31.876 45.8323 31.4746 46.3258 31.4746C46.8192 31.4746 47.2206 31.8759 47.2206 32.3694C47.2206 32.8629 46.8192 33.2642 46.3258 33.2642Z" fill="#28574E"/>
<path d="M34.2518 14.1262L31.6982 11.5727C31.8632 11.2414 31.9566 10.8683 31.9566 10.4738C31.9566 9.10978 30.8468 8 29.4828 8C28.1187 8 27.009 9.10978 27.009 10.4738C27.009 11.8378 28.1187 12.9476 29.4828 12.9476C29.8773 12.9476 30.2504 12.8542 30.5816 12.6893L32.577 14.6845L24.7137 22.5476C24.5655 22.6956 24.4824 22.8964 24.4824 23.1058V52.5809C24.4824 53.0169 24.836 53.3704 25.272 53.3704C25.708 53.3704 26.0615 53.0169 26.0615 52.5809V23.4329L34.2518 15.2426C34.56 14.9344 34.56 14.4343 34.2518 14.1262ZM29.4828 11.3684C28.9894 11.3684 28.588 10.9671 28.588 10.4736C28.588 9.98022 28.9893 9.57878 29.4828 9.57878C29.9761 9.57878 30.3776 9.98012 30.3776 10.4736C30.3776 10.9671 29.9761 11.3684 29.4828 11.3684Z" fill="#28574E"/>
<path d="M21.5674 30.9209L18.3149 28.2106C18.4228 27.9331 18.4827 27.6318 18.4827 27.3166C18.4827 25.9526 17.373 24.8428 16.0089 24.8428C14.6449 24.8428 13.5351 25.9526 13.5351 27.3166C13.5351 28.6806 14.6449 29.7904 16.0089 29.7904C16.4834 29.7904 16.9269 29.6558 17.3038 29.4233L20.2723 31.897V48.3702C20.2723 48.8062 20.6258 49.1597 21.0618 49.1597C21.4978 49.1597 21.8514 48.8062 21.8514 48.3702V31.5274C21.8515 31.2931 21.7473 31.0708 21.5674 30.9209ZM16.0091 28.2114C15.5158 28.2114 15.1143 27.8101 15.1143 27.3166C15.1143 26.8231 15.5157 26.4218 16.0091 26.4218C16.5026 26.4218 16.904 26.8231 16.904 27.3166C16.904 27.8101 16.5025 28.2114 16.0091 28.2114Z" fill="#1E232F"/>
<path d="M32.0102 45.4751C31.5741 45.4751 31.2207 45.8286 31.2207 46.2646V54.2651C31.2207 54.7011 31.5741 55.0546 32.0102 55.0546C32.4464 55.0546 32.7998 54.7011 32.7998 54.2651V46.2646C32.7998 45.8286 32.4463 45.4751 32.0102 45.4751Z" fill="#1E232F"/>
<path d="M28.6412 32.4219C28.2051 32.4219 27.8517 32.7754 27.8517 33.2114V52.5808C27.8517 53.0168 28.2051 53.3703 28.6412 53.3703C29.0773 53.3703 29.4308 53.0168 29.4308 52.5808V33.2114C29.4308 32.7753 29.0772 32.4219 28.6412 32.4219Z" fill="#1E232F"/>
<path d="M28.6412 24.8428C28.2051 24.8428 27.8517 25.1963 27.8517 25.6323V28.1588C27.8517 28.5948 28.2051 28.9483 28.6412 28.9483C29.0773 28.9483 29.4308 28.5948 29.4308 28.1588V25.6322C29.4308 25.1962 29.0772 24.8428 28.6412 24.8428Z" fill="#1E232F"/>
<path d="M35.3794 30.7378C34.9433 30.7378 34.5898 31.0913 34.5898 31.5273V51.7389C34.5898 52.1749 34.9433 52.5284 35.3794 52.5284C35.8155 52.5284 36.1689 52.1749 36.1689 51.7389V31.5273C36.1688 31.0913 35.8154 30.7378 35.3794 30.7378Z" fill="#1E232F"/>
<path d="M35.3794 23.1587C34.9433 23.1587 34.5898 23.5122 34.5898 23.9482V27.3169C34.5898 27.7529 34.9433 28.1064 35.3794 28.1064C35.8155 28.1064 36.1689 27.7529 36.1689 27.3169V23.9482C36.1688 23.5122 35.8154 23.1587 35.3794 23.1587Z" fill="#1E232F"/>
<path d="M25.8309 16.6527C25.5226 16.3443 25.0227 16.3443 24.7144 16.6527L18.8194 22.5477C18.511 22.8561 18.511 23.356 18.8194 23.6642L22.188 27.0328C22.5092 27.354 23.0512 27.3324 23.3465 26.9876C23.6112 26.6786 23.5921 26.2037 23.3045 25.9163L20.4942 23.106L25.8309 17.7693C26.1393 17.4608 26.1393 16.9609 25.8309 16.6527Z" fill="#1E232F"/>
</svg>
