<svg width="64" height="59" viewBox="0 0 64 59" fill="none" xmlns="http://www.w3.org/2000/svg">
<path d="M12.5781 17.2066C19.0412 13.7879 26.044 13.7879 32.5072 17.203" stroke="#28574E" stroke-width="1.5" stroke-miterlimit="10" stroke-linecap="round" stroke-linejoin="round"/>
<path d="M4.86719 9.49466C8.59174 4.30189 15.4435 0.75 22.5435 0.75C29.6435 0.75 36.4917 4.30177 40.2163 9.49466" stroke="#28574E" stroke-width="1.5" stroke-miterlimit="10" stroke-linecap="round" stroke-linejoin="round"/>
<path d="M42.9291 50.364L35.5089 57.788L22.5431 44.8223M13.7157 35.9948L7.53334 29.8123C0.465737 22.7447 0.814732 15.1481 4.86682 9.49463L22.5431 27.1709" stroke="#28574E" stroke-width="1.5" stroke-miterlimit="10" stroke-linecap="round" stroke-linejoin="round"/>
<path d="M43.0515 19.1605C43.3503 15.659 42.2491 12.3339 40.2158 9.49463L0.75 48.9605L9.57743 57.788L31.0323 36.3332" stroke="#28574E" stroke-width="1.5" stroke-miterlimit="10" stroke-linecap="round" stroke-linejoin="round"/>
<path d="M47.0824 50.9075C55.9673 50.9075 63.2112 43.6636 63.2112 34.7787C63.2112 25.8973 55.9673 18.6533 47.0824 18.6533C38.201 18.6533 30.957 25.8973 30.957 34.7787C30.957 43.6636 38.201 50.9075 47.0824 50.9075Z" stroke="#1E232F" stroke-width="1.5" stroke-miterlimit="10" stroke-linecap="round" stroke-linejoin="round"/>
<path d="M50.4829 26.5806H43.6852V31.381H38.8848V38.1752H43.6852V42.9794H50.4829V38.1752H55.2836V31.381H50.4829V26.5806Z" stroke="#1E232F" stroke-width="1.5" stroke-miterlimit="10" stroke-linecap="round" stroke-linejoin="round"/>
</svg>
