<svg width="66" height="72" viewBox="0 0 66 72" fill="none" xmlns="http://www.w3.org/2000/svg">
<mask id="path-1-inside-1_1_281" fill="white">
<path d="M59.1947 18.389C62.1697 18.389 64.5898 15.969 64.5898 12.9951C64.5898 10.0212 62.1697 7.60119 59.1947 7.60119C56.2208 7.60119 53.8008 10.0212 53.8008 12.9951C53.8008 13.8935 54.0425 14.7283 54.4333 15.4741L49.7077 19.4111C46.2251 15.9169 41.4093 13.7501 36.0975 13.7501C35.7598 13.7501 35.4315 13.7837 35.0985 13.801L34.5527 8.93666C35.9044 8.325 36.8513 6.97103 36.8513 5.39391C36.8513 3.24791 35.1042 1.50081 32.9582 1.50081C30.8122 1.50081 29.0651 3.24791 29.0651 5.39391C29.0651 7.30981 30.4596 8.8985 32.2853 9.21878L32.8276 14.0496C30.3023 14.4855 27.9471 15.4105 25.8589 16.7321L20.3135 8.99563C21.1784 8.03825 21.7206 6.78256 21.7206 5.39391C21.7206 2.42003 19.3006 0 16.3267 0C13.3529 0 10.9328 2.42003 10.9328 5.39391C10.9328 8.36894 13.3529 10.789 16.3267 10.789C17.0876 10.789 17.8091 10.6271 18.467 10.3415L23.9961 18.056C20.3031 21.0565 17.7582 25.3993 17.0748 30.3319L10.6461 30.1434C10.3917 28.934 9.75924 27.8494 8.78568 27.0632C7.82831 26.2885 6.62465 25.8642 5.39671 25.8642C3.75831 25.8642 2.22859 26.5938 1.19952 27.8668C0.294181 28.9883 -0.120913 30.3932 0.0305558 31.8269C0.182025 33.2595 0.882712 34.5476 2.00312 35.4529C2.96049 36.2276 4.16415 36.652 5.39209 36.652C7.02934 36.652 8.55906 35.9224 9.58927 34.6493C10.12 33.9914 10.4599 33.2318 10.638 32.4305L16.8887 32.6132C16.8864 32.7358 16.8702 32.8548 16.8702 32.9774C16.8702 38.1158 18.9075 42.7789 22.2028 46.2315L19.6995 48.9209C19.1873 48.6724 18.6184 48.5197 18.0114 48.5197C15.8654 48.5197 14.1183 50.2668 14.1183 52.4128C14.1183 54.5588 15.8654 56.3059 18.0114 56.3059C20.1574 56.3059 21.9045 54.5588 21.9045 52.4128C21.9045 51.7064 21.701 51.0519 21.3703 50.4796L23.8643 47.8005C27.1909 50.5501 31.4528 52.2047 36.0951 52.2047C36.7022 52.2047 37.3011 52.1688 37.8931 52.1133L39.3407 61.4894C38.114 61.9588 37.078 62.8595 36.4594 64.0794C35.1158 66.733 36.1819 69.9855 38.8355 71.3302C39.587 71.7106 40.4288 71.9118 41.2671 71.9118C43.3136 71.9118 45.159 70.7787 46.084 68.9541C46.735 67.6684 46.846 66.2069 46.3962 64.8367C45.9476 63.4677 44.9925 62.3554 43.7067 61.7044C43.0512 61.3726 42.3285 61.1876 41.5977 61.1425L40.1501 51.7653C46.8598 50.3177 52.2722 45.3609 54.3708 38.9148L58.0662 39.8768C58.1587 41.9418 59.8549 43.5987 61.942 43.5987C64.0891 43.5987 65.8362 41.8516 65.8362 39.7056C65.8362 37.5596 64.0891 35.8125 61.942 35.8125C60.5452 35.8125 59.3277 36.5583 58.6409 37.666L54.9501 36.7052C55.1883 35.498 55.3201 34.2528 55.3201 32.9774C55.3201 28.5085 53.7742 24.4015 51.2073 21.1328L55.8913 17.2304C56.8094 17.945 57.946 18.389 59.1947 18.389ZM31.3487 5.39275C31.3487 4.50591 32.0702 3.78441 32.9571 3.78441C33.8439 3.78441 34.5654 4.50591 34.5654 5.39275C34.5654 6.27959 33.8451 7.00109 32.9582 7.00109C32.0702 7.00109 31.3487 6.27959 31.3487 5.39275ZM13.2176 5.39275C13.2176 3.67803 14.612 2.28359 16.3267 2.28359C18.0415 2.28359 19.4359 3.67803 19.4359 5.39275C19.4359 7.10747 18.0415 8.50306 16.3267 8.50306C14.612 8.50306 13.2176 7.10747 13.2176 5.39275ZM7.81327 33.211C6.76918 34.5025 4.73418 34.7199 3.44034 33.6746C2.79399 33.152 2.39046 32.4097 2.30259 31.5841C2.21587 30.7574 2.45406 29.948 2.97668 29.3017C3.56984 28.5675 4.45205 28.1466 5.39787 28.1466C6.11474 28.1466 6.79115 28.3848 7.34962 28.8369C7.99596 29.3595 8.39949 30.1018 8.48737 30.9274C8.57409 31.7553 8.33474 32.5658 7.81327 33.211ZM44.2282 65.5467C44.4872 66.3364 44.4236 67.1793 44.0478 67.9193C43.516 68.9726 42.4511 69.6248 41.2705 69.6248C40.7814 69.6248 40.3097 69.5126 39.8703 69.2894C38.3406 68.5148 37.7266 66.6405 38.5013 65.1119C39.0332 64.0586 40.0981 63.4064 41.2786 63.4064C41.7689 63.4064 42.2395 63.5186 42.6788 63.7418C43.42 64.1175 43.9704 64.7581 44.2282 65.5467ZM61.9454 38.0961C62.8334 38.0961 63.5549 38.8176 63.5549 39.7045C63.5549 40.5913 62.8334 41.3128 61.9454 41.3128C61.0586 41.3128 60.3371 40.5913 60.3371 39.7045C60.3371 38.8176 61.0586 38.0961 61.9454 38.0961ZM18.0126 54.0212C17.1257 54.0212 16.4042 53.2997 16.4042 52.4128C16.4042 51.526 17.1257 50.8045 18.0126 50.8045C18.8994 50.8045 19.6209 51.526 19.6209 52.4128C19.6209 53.2997 18.9006 54.0212 18.0126 54.0212ZM36.0975 49.9188C26.755 49.9188 19.1561 42.3188 19.1561 32.9763C19.1561 23.6338 26.7561 16.0349 36.0975 16.0349C45.4388 16.0349 53.0388 23.6338 53.0388 32.9763C53.0388 42.3188 45.4388 49.9188 36.0975 49.9188ZM59.1947 9.88478C60.9094 9.88478 62.305 11.2792 62.305 12.9939C62.305 14.7087 60.9094 16.1031 59.1947 16.1031C57.48 16.1031 56.0856 14.7087 56.0856 12.9939C56.0856 11.2792 57.48 9.88478 59.1947 9.88478Z"/>
</mask>
<path d="M59.1947 18.389C62.1697 18.389 64.5898 15.969 64.5898 12.9951C64.5898 10.0212 62.1697 7.60119 59.1947 7.60119C56.2208 7.60119 53.8008 10.0212 53.8008 12.9951C53.8008 13.8935 54.0425 14.7283 54.4333 15.4741L49.7077 19.4111C46.2251 15.9169 41.4093 13.7501 36.0975 13.7501C35.7598 13.7501 35.4315 13.7837 35.0985 13.801L34.5527 8.93666C35.9044 8.325 36.8513 6.97103 36.8513 5.39391C36.8513 3.24791 35.1042 1.50081 32.9582 1.50081C30.8122 1.50081 29.0651 3.24791 29.0651 5.39391C29.0651 7.30981 30.4596 8.8985 32.2853 9.21878L32.8276 14.0496C30.3023 14.4855 27.9471 15.4105 25.8589 16.7321L20.3135 8.99563C21.1784 8.03825 21.7206 6.78256 21.7206 5.39391C21.7206 2.42003 19.3006 0 16.3267 0C13.3529 0 10.9328 2.42003 10.9328 5.39391C10.9328 8.36894 13.3529 10.789 16.3267 10.789C17.0876 10.789 17.8091 10.6271 18.467 10.3415L23.9961 18.056C20.3031 21.0565 17.7582 25.3993 17.0748 30.3319L10.6461 30.1434C10.3917 28.934 9.75924 27.8494 8.78568 27.0632C7.82831 26.2885 6.62465 25.8642 5.39671 25.8642C3.75831 25.8642 2.22859 26.5938 1.19952 27.8668C0.294181 28.9883 -0.120913 30.3932 0.0305558 31.8269C0.182025 33.2595 0.882712 34.5476 2.00312 35.4529C2.96049 36.2276 4.16415 36.652 5.39209 36.652C7.02934 36.652 8.55906 35.9224 9.58927 34.6493C10.12 33.9914 10.4599 33.2318 10.638 32.4305L16.8887 32.6132C16.8864 32.7358 16.8702 32.8548 16.8702 32.9774C16.8702 38.1158 18.9075 42.7789 22.2028 46.2315L19.6995 48.9209C19.1873 48.6724 18.6184 48.5197 18.0114 48.5197C15.8654 48.5197 14.1183 50.2668 14.1183 52.4128C14.1183 54.5588 15.8654 56.3059 18.0114 56.3059C20.1574 56.3059 21.9045 54.5588 21.9045 52.4128C21.9045 51.7064 21.701 51.0519 21.3703 50.4796L23.8643 47.8005C27.1909 50.5501 31.4528 52.2047 36.0951 52.2047C36.7022 52.2047 37.3011 52.1688 37.8931 52.1133L39.3407 61.4894C38.114 61.9588 37.078 62.8595 36.4594 64.0794C35.1158 66.733 36.1819 69.9855 38.8355 71.3302C39.587 71.7106 40.4288 71.9118 41.2671 71.9118C43.3136 71.9118 45.159 70.7787 46.084 68.9541C46.735 67.6684 46.846 66.2069 46.3962 64.8367C45.9476 63.4677 44.9925 62.3554 43.7067 61.7044C43.0512 61.3726 42.3285 61.1876 41.5977 61.1425L40.1501 51.7653C46.8598 50.3177 52.2722 45.3609 54.3708 38.9148L58.0662 39.8768C58.1587 41.9418 59.8549 43.5987 61.942 43.5987C64.0891 43.5987 65.8362 41.8516 65.8362 39.7056C65.8362 37.5596 64.0891 35.8125 61.942 35.8125C60.5452 35.8125 59.3277 36.5583 58.6409 37.666L54.9501 36.7052C55.1883 35.498 55.3201 34.2528 55.3201 32.9774C55.3201 28.5085 53.7742 24.4015 51.2073 21.1328L55.8913 17.2304C56.8094 17.945 57.946 18.389 59.1947 18.389ZM31.3487 5.39275C31.3487 4.50591 32.0702 3.78441 32.9571 3.78441C33.8439 3.78441 34.5654 4.50591 34.5654 5.39275C34.5654 6.27959 33.8451 7.00109 32.9582 7.00109C32.0702 7.00109 31.3487 6.27959 31.3487 5.39275ZM13.2176 5.39275C13.2176 3.67803 14.612 2.28359 16.3267 2.28359C18.0415 2.28359 19.4359 3.67803 19.4359 5.39275C19.4359 7.10747 18.0415 8.50306 16.3267 8.50306C14.612 8.50306 13.2176 7.10747 13.2176 5.39275ZM7.81327 33.211C6.76918 34.5025 4.73418 34.7199 3.44034 33.6746C2.79399 33.152 2.39046 32.4097 2.30259 31.5841C2.21587 30.7574 2.45406 29.948 2.97668 29.3017C3.56984 28.5675 4.45205 28.1466 5.39787 28.1466C6.11474 28.1466 6.79115 28.3848 7.34962 28.8369C7.99596 29.3595 8.39949 30.1018 8.48737 30.9274C8.57409 31.7553 8.33474 32.5658 7.81327 33.211ZM44.2282 65.5467C44.4872 66.3364 44.4236 67.1793 44.0478 67.9193C43.516 68.9726 42.4511 69.6248 41.2705 69.6248C40.7814 69.6248 40.3097 69.5126 39.8703 69.2894C38.3406 68.5148 37.7266 66.6405 38.5013 65.1119C39.0332 64.0586 40.0981 63.4064 41.2786 63.4064C41.7689 63.4064 42.2395 63.5186 42.6788 63.7418C43.42 64.1175 43.9704 64.7581 44.2282 65.5467ZM61.9454 38.0961C62.8334 38.0961 63.5549 38.8176 63.5549 39.7045C63.5549 40.5913 62.8334 41.3128 61.9454 41.3128C61.0586 41.3128 60.3371 40.5913 60.3371 39.7045C60.3371 38.8176 61.0586 38.0961 61.9454 38.0961ZM18.0126 54.0212C17.1257 54.0212 16.4042 53.2997 16.4042 52.4128C16.4042 51.526 17.1257 50.8045 18.0126 50.8045C18.8994 50.8045 19.6209 51.526 19.6209 52.4128C19.6209 53.2997 18.9006 54.0212 18.0126 54.0212ZM36.0975 49.9188C26.755 49.9188 19.1561 42.3188 19.1561 32.9763C19.1561 23.6338 26.7561 16.0349 36.0975 16.0349C45.4388 16.0349 53.0388 23.6338 53.0388 32.9763C53.0388 42.3188 45.4388 49.9188 36.0975 49.9188ZM59.1947 9.88478C60.9094 9.88478 62.305 11.2792 62.305 12.9939C62.305 14.7087 60.9094 16.1031 59.1947 16.1031C57.48 16.1031 56.0856 14.7087 56.0856 12.9939C56.0856 11.2792 57.48 9.88478 59.1947 9.88478Z" fill="#28574E" stroke="#F9F9F9" stroke-width="0.8" mask="url(#path-1-inside-1_1_281)"/>
<path d="M32.0771 22.7876C34.9404 22.7876 37.2713 25.1177 37.2715 27.981C37.2715 30.8456 34.9405 33.1763 32.0771 33.1763C29.2139 33.1761 26.8838 30.8454 26.8838 27.981C26.884 25.1178 29.214 22.7878 32.0771 22.7876ZM32.0771 24.6724C30.2523 24.6726 28.7687 26.1561 28.7686 27.981C28.7686 29.8059 30.252 31.2913 32.0771 31.2915C33.9024 31.2915 35.3867 29.806 35.3867 27.981C35.3865 26.1559 33.9022 24.6724 32.0771 24.6724Z" fill="#1E232F" stroke="#F9F9F9" stroke-width="0.4"/>
<path d="M45.6123 30.4883C47.6476 30.4885 49.3047 32.1463 49.3047 34.1816C49.3044 36.218 47.6474 37.8748 45.6123 37.875C43.577 37.875 41.9192 36.2182 41.9189 34.1816C41.9189 32.1461 43.5768 30.4883 45.6123 30.4883ZM45.6133 32.373C44.616 32.373 43.8047 33.1843 43.8047 34.1816C43.8049 35.1798 44.616 35.9902 45.6133 35.9902C46.6104 35.9901 47.4206 35.1797 47.4209 34.1816C47.4209 33.1844 46.6105 32.3732 45.6133 32.373Z" fill="#1E232F" stroke="#F9F9F9" stroke-width="0.4"/>
<path d="M35.9424 38.0869C37.9788 38.0872 39.6356 39.7442 39.6348 41.7793V41.7803C39.6345 43.8154 37.9776 45.4724 35.9424 45.4727C33.907 45.4727 32.2493 43.8156 32.249 41.7803C32.249 39.7447 33.9068 38.0869 35.9424 38.0869ZM35.9424 39.9727C34.9451 39.9727 34.1338 40.784 34.1338 41.7812C34.1339 42.7784 34.9452 43.5889 35.9424 43.5889C36.9406 43.5886 37.7513 42.7765 37.75 41.7803C37.7496 40.7834 36.9392 39.9729 35.9424 39.9727Z" fill="#1E232F" stroke="#F9F9F9" stroke-width="0.4"/>
</svg>
