<svg width="55" height="64" viewBox="0 0 55 64" fill="none" xmlns="http://www.w3.org/2000/svg">
<path d="M51.267 20.4165L46.7267 21.3901L47.8402 24.3511L42.8145 25.2562" stroke="#1E232F" stroke-width="1.5" stroke-miterlimit="10" stroke-linecap="round" stroke-linejoin="round"/>
<path d="M53.9387 30.7773L49.3338 30.1587L49.3622 33.3173L44.3243 32.4703" stroke="#1E232F" stroke-width="1.5" stroke-miterlimit="10" stroke-linecap="round" stroke-linejoin="round"/>
<path d="M51.2571 43.5214L48.0621 40.1648L46.1284 42.6803L42.7383 38.8735" stroke="#1E232F" stroke-width="1.5" stroke-miterlimit="10" stroke-linecap="round" stroke-linejoin="round"/>
<path d="M3.41998 20.4165L7.96024 21.3901L6.84675 24.3511L11.8725 25.2562" stroke="#1E232F" stroke-width="1.5" stroke-miterlimit="10" stroke-linecap="round" stroke-linejoin="round"/>
<path d="M0.750061 30.7773L5.35501 30.1587L5.32659 33.3173L10.3645 32.4703" stroke="#1E232F" stroke-width="1.5" stroke-miterlimit="10" stroke-linecap="round" stroke-linejoin="round"/>
<path d="M3.4317 43.5214L6.62677 40.1648L8.56043 42.6803L11.9505 38.8735" stroke="#1E232F" stroke-width="1.5" stroke-miterlimit="10" stroke-linecap="round" stroke-linejoin="round"/>
<path d="M31.6427 63.1873V47.0899C31.6427 45.9931 32.3608 45.0489 33.4103 44.5485C35.6458 43.4826 37.0687 41.1607 36.578 38.5746C36.1516 36.3278 34.2282 34.5242 31.8167 34.104C30.5461 33.8826 29.3332 34.0371 28.277 34.4648C27.6745 34.7089 27.014 34.7089 26.4114 34.4648C25.3554 34.0371 24.1426 33.8827 22.8723 34.1039C20.4607 34.5239 18.5371 36.3275 18.1106 38.5743C17.6197 41.1605 19.0428 43.4825 21.2782 44.5485C22.3278 45.0489 23.0459 45.9931 23.0459 47.0899V63.1873" stroke="#28574E" stroke-width="1.5" stroke-miterlimit="10" stroke-linecap="round" stroke-linejoin="round"/>
<path d="M31.6427 0.75V16.8474C31.6427 17.9442 32.3608 18.8884 33.4103 19.3888C35.6458 20.4547 37.0687 22.7766 36.578 25.3627C36.1516 27.6095 34.2282 29.4131 31.8167 29.8333C30.5461 30.0546 29.3332 29.9002 28.277 29.4725C27.6745 29.2284 27.014 29.2284 26.4114 29.4725C25.3554 29.9002 24.1426 30.0546 22.8723 29.8334C20.4607 29.4134 18.5371 27.6098 18.1106 25.363C17.6197 22.7768 19.0428 20.4548 21.2782 19.3888C22.3278 18.8884 23.0459 17.9442 23.0459 16.8474V0.75" stroke="#28574E" stroke-width="1.5" stroke-miterlimit="10" stroke-linecap="round" stroke-linejoin="round"/>
</svg>
