<svg width="67" height="59" viewBox="0 0 67 59" fill="none" xmlns="http://www.w3.org/2000/svg">
<path d="M49.0117 33.3065V40.7108C49.0117 45.4602 45.1615 49.3104 40.4121 49.3104H9.00195L1 57.3124V25.6034C1 20.854 4.85024 17.0038 9.59961 17.0038H17.0039V24.7069C17.0039 29.4563 20.8541 33.3065 25.6035 33.3065H49.0117Z" stroke="#1E232F" stroke-width="2" stroke-miterlimit="10" stroke-linecap="round" stroke-linejoin="round"/>
<path d="M65.0156 9.5996V41.3086L57.0137 33.3066H25.6035C20.8541 33.3066 17.0039 29.4564 17.0039 24.707V9.5996C17.0039 4.85023 20.8541 0.999991 25.6035 0.999991H56.416C61.1654 0.999991 65.0156 4.85023 65.0156 9.5996Z" stroke="#28574E" stroke-width="2" stroke-miterlimit="10" stroke-linecap="round" stroke-linejoin="round"/>
<path d="M29.0075 18.996C30.0496 18.996 31.0479 18.0797 30.9997 17.0038C30.9514 15.9244 30.1244 15.0116 29.0075 15.0116C27.9655 15.0116 26.9671 15.9279 27.0154 17.0038C27.0637 18.0832 27.8907 18.996 29.0075 18.996Z" fill="#28574E"/>
<path d="M41.0097 18.9961C42.0518 18.9961 43.0501 18.0798 43.0019 17.0039C42.9536 15.9245 42.1266 15.0117 41.0097 15.0117C39.9677 15.0117 38.9693 15.928 39.0175 17.0039C39.0659 18.0833 39.8929 18.9961 41.0097 18.9961Z" fill="#28574E"/>
<path d="M53.0134 18.996C54.0554 18.996 55.0538 18.0797 55.0056 17.0038C54.9572 15.9244 54.1302 15.0116 53.0134 15.0116C51.9714 15.0116 50.973 15.9279 51.0212 17.0038C51.0696 18.0832 51.8966 18.996 53.0134 18.996Z" fill="#28574E"/>
</svg>
