<svg width="69" height="69" viewBox="0 0 69 69" fill="none" xmlns="http://www.w3.org/2000/svg">
<path d="M0 7.62939e-06H69V69H0V7.62939e-06Z" fill="#F9F9F9"/>
<path d="M40.3905 64.4865C42.4713 63.3221 44.4281 61.8559 46.1962 60.0877C55.3939 50.89 56.4128 36.6116 49.2527 26.2885L54.9506 20.5906C55.824 19.7173 57.2402 19.7173 58.1135 20.5906L60.9355 23.4126C61.8088 24.2872 63.2252 24.2872 64.0985 23.4126L67.3328 20.1782C68.2061 19.305 68.2061 17.8886 67.3328 17.0153L64.5108 14.1933C63.6376 13.32 63.6376 11.9036 64.5108 11.0303L67.3342 8.20701C68.2075 7.33372 68.2075 5.91734 67.3342 5.04406L64.0998 1.80968C63.2265 0.9364 61.8101 0.9364 60.9369 1.80968L58.1135 4.63302C57.2402 5.5063 55.824 5.5063 54.9506 4.63302L52.1272 1.80968C51.2526 0.9364 49.8376 0.9364 48.9643 1.80968L45.7286 5.04406C44.8553 5.91734 44.8553 7.33372 45.7286 8.20701L48.5532 11.0303C49.4265 11.9036 49.4265 13.32 48.5532 14.1933L42.9093 19.8373C32.5781 12.4076 18.1016 13.3187 8.79199 22.5771C-1.50275 32.8152 -1.59574 49.5962 8.59254 59.9408C16.1664 67.6319 27.2616 69.71 36.7397 66.1751M40.299 54.1908C33.2121 61.2776 21.7225 61.2776 14.6356 54.1908C7.54865 47.1039 7.54865 35.6142 14.6356 28.5272C21.7225 21.4403 33.2121 21.4403 40.299 28.5272C47.3859 35.6142 47.3858 47.1039 40.299 54.1908Z" stroke="#28574E" stroke-width="1.5" stroke-miterlimit="10" stroke-linecap="round" stroke-linejoin="round"/>
<path d="M24.139 35.1784C24.7275 35.4137 25.2776 35.7698 25.7544 36.2465L27.452 37.9442L29.1488 36.2465C31.0355 34.3597 34.095 34.3597 35.9818 36.2465C37.8686 38.1333 37.8686 41.1928 35.9818 43.0796L27.452 51.6094L18.9222 43.0796C17.9788 42.1362 17.5072 40.9001 17.5072 39.663C17.5072 38.426 17.9788 37.1899 18.9222 36.2465C19.565 35.6038 20.3433 35.1804 21.1651 34.9752" stroke="#EB5757" stroke-width="1.5" stroke-miterlimit="10" stroke-linecap="round" stroke-linejoin="round"/>
</svg>
