<svg width="65" height="65" viewBox="0 0 65 65" fill="none" xmlns="http://www.w3.org/2000/svg">
<mask id="path-1-inside-1_1_455" fill="white">
<path d="M59.6844 34.1244H57.8095V15.032C57.8095 14.7378 57.6926 14.4556 57.4846 14.2476C57.2766 14.0395 56.9944 13.9227 56.7001 13.9227H54.3594V11.0938C54.3594 10.7995 54.2425 10.5174 54.0344 10.3093C53.8264 10.1013 53.5442 9.98438 53.25 9.98438H51.6303V1.10938C51.6303 0.81515 51.5134 0.532977 51.3054 0.324928C51.0973 0.11688 50.8152 0 50.5209 0C50.2267 0 49.9445 0.11688 49.7365 0.324928C49.5284 0.532977 49.4116 0.81515 49.4116 1.10938V9.98438H47.803C47.5087 9.98438 47.2266 10.1013 47.0185 10.3093C46.8105 10.5174 46.6936 10.7995 46.6936 11.0938V13.9227H44.375C44.0808 13.9227 43.7986 14.0395 43.5905 14.2476C43.3825 14.4556 43.2656 14.7378 43.2656 15.032V34.1244H38.1181V23.9292C38.1119 22.7868 37.7613 21.6728 37.1121 20.7328C36.463 19.7927 35.5455 19.0702 34.4794 18.6597L32.4159 17.8831C31.6511 17.5916 30.9925 17.0751 30.5271 16.4017C30.0617 15.7284 29.8113 14.9298 29.8089 14.1112V10.9606H30.8184C31.1127 10.9606 31.3948 10.8437 31.6029 10.6357C31.8109 10.4276 31.9278 10.1455 31.9278 9.85125V1.10938C31.9278 0.81515 31.8109 0.532977 31.6029 0.324928C31.3948 0.11688 31.1127 0 30.8184 0H7.29969C7.00546 0 6.72329 0.11688 6.51524 0.324928C6.30719 0.532977 6.19031 0.81515 6.19031 1.10938V9.85125C6.19031 10.1455 6.30719 10.4276 6.51524 10.6357C6.72329 10.8437 7.00546 10.9606 7.29969 10.9606H8.30922V14.1112C8.30683 14.9298 8.05642 15.7284 7.59101 16.4017C7.12561 17.0751 6.46705 17.5916 5.70219 17.8831L3.63875 18.6597C2.57265 19.0702 1.65511 19.7927 1.00597 20.7328C0.356827 21.6728 0.00624287 22.7868 0 23.9292V58.0092C0 59.6892 0.667386 61.3005 1.85534 62.4884C2.44356 63.0766 3.14187 63.5432 3.91041 63.8616C4.67895 64.1799 5.50267 64.3438 6.33453 64.3438H59.6844C60.9201 64.3438 62.1052 63.8529 62.979 62.979C63.8528 62.1052 64.3437 60.9201 64.3437 59.6844V38.8281C64.3481 38.2129 64.2309 37.6029 63.9989 37.0332C63.7668 36.4634 63.4245 35.9451 62.9915 35.508C62.5586 35.0709 62.0435 34.7237 61.476 34.4862C60.9084 34.2488 60.2996 34.1258 59.6844 34.1244ZM8.40906 2.21875H29.7091V8.74187H8.40906V2.21875ZM48.9123 12.2031H52.1406V13.9227H48.9123V12.2031ZM45.4844 16.1414H55.613V20.1352H52.9172C52.623 20.1352 52.3408 20.252 52.1327 20.4601C51.9247 20.6681 51.8078 20.9503 51.8078 21.2445C51.8078 21.5388 51.9247 21.8209 52.1327 22.029C52.3408 22.237 52.623 22.3539 52.9172 22.3539H55.5908V25.2494H50.6208C50.3266 25.2494 50.0444 25.3663 49.8363 25.5743C49.6283 25.7824 49.5114 26.0645 49.5114 26.3587C49.5114 26.653 49.6283 26.9351 49.8363 27.1432C50.0444 27.3512 50.3266 27.4681 50.6208 27.4681H55.5908V30.3636H52.9172C52.623 30.3636 52.3408 30.4805 52.1327 30.6885C51.9247 30.8966 51.8078 31.1787 51.8078 31.473C51.8078 31.7672 51.9247 32.0494 52.1327 32.2574C52.3408 32.4655 52.623 32.5823 52.9172 32.5823H55.5908V34.1244H45.4844V16.1414ZM14.6437 34.1244C14.0285 34.1258 13.4197 34.2488 12.8521 34.4862C12.2846 34.7237 11.7695 35.0709 11.3366 35.508C10.9036 35.9451 10.5613 36.4634 10.3292 37.0332C10.0972 37.6029 9.97999 38.2129 9.98437 38.8281V48.1691H2.21875V27.3905H35.8994V34.1244H14.6437ZM4.4375 20.7453L6.48984 19.9688C7.67553 19.5174 8.69634 18.7169 9.41736 17.673C10.1384 16.6291 10.5256 15.391 10.528 14.1223V10.9606H27.5902V14.1112C27.5902 15.3818 27.9765 16.6224 28.6976 17.6684C29.4188 18.7145 30.4408 19.5167 31.6283 19.9688L33.6917 20.7564C34.3408 20.9994 34.9007 21.4341 35.297 22.0028C35.6932 22.5715 35.9072 23.2472 35.9105 23.9403V25.1828H2.21875V23.9292C2.222 23.2361 2.43597 22.5604 2.83225 21.9917C3.22853 21.423 3.78838 20.9883 4.4375 20.7453ZM2.21875 58.0092V50.3434H9.98437V59.6844C9.98612 60.5486 10.2323 61.3947 10.6944 62.125H6.33453C5.24296 62.125 4.19609 61.6914 3.42423 60.9195C2.65238 60.1477 2.21875 59.1008 2.21875 58.0092ZM62.125 59.6844C62.1221 60.3308 61.864 60.9499 61.4069 61.4069C60.9499 61.864 60.3308 62.1221 59.6844 62.125H14.6437C13.9974 62.1221 13.3783 61.864 12.9212 61.4069C12.4641 60.9499 12.206 60.3308 12.2031 59.6844V38.8281C12.206 38.1817 12.4641 37.5626 12.9212 37.1056C13.3783 36.6485 13.9974 36.3904 14.6437 36.3875H59.6844C60.3308 36.3904 60.9499 36.6485 61.4069 37.1056C61.864 37.5626 62.1221 38.1817 62.125 38.8281V59.6844Z"/>
</mask>
<path d="M59.6844 34.1244H57.8095V15.032C57.8095 14.7378 57.6926 14.4556 57.4846 14.2476C57.2766 14.0395 56.9944 13.9227 56.7001 13.9227H54.3594V11.0938C54.3594 10.7995 54.2425 10.5174 54.0344 10.3093C53.8264 10.1013 53.5442 9.98438 53.25 9.98438H51.6303V1.10938C51.6303 0.81515 51.5134 0.532977 51.3054 0.324928C51.0973 0.11688 50.8152 0 50.5209 0C50.2267 0 49.9445 0.11688 49.7365 0.324928C49.5284 0.532977 49.4116 0.81515 49.4116 1.10938V9.98438H47.803C47.5087 9.98438 47.2266 10.1013 47.0185 10.3093C46.8105 10.5174 46.6936 10.7995 46.6936 11.0938V13.9227H44.375C44.0808 13.9227 43.7986 14.0395 43.5905 14.2476C43.3825 14.4556 43.2656 14.7378 43.2656 15.032V34.1244H38.1181V23.9292C38.1119 22.7868 37.7613 21.6728 37.1121 20.7328C36.463 19.7927 35.5455 19.0702 34.4794 18.6597L32.4159 17.8831C31.6511 17.5916 30.9925 17.0751 30.5271 16.4017C30.0617 15.7284 29.8113 14.9298 29.8089 14.1112V10.9606H30.8184C31.1127 10.9606 31.3948 10.8437 31.6029 10.6357C31.8109 10.4276 31.9278 10.1455 31.9278 9.85125V1.10938C31.9278 0.81515 31.8109 0.532977 31.6029 0.324928C31.3948 0.11688 31.1127 0 30.8184 0H7.29969C7.00546 0 6.72329 0.11688 6.51524 0.324928C6.30719 0.532977 6.19031 0.81515 6.19031 1.10938V9.85125C6.19031 10.1455 6.30719 10.4276 6.51524 10.6357C6.72329 10.8437 7.00546 10.9606 7.29969 10.9606H8.30922V14.1112C8.30683 14.9298 8.05642 15.7284 7.59101 16.4017C7.12561 17.0751 6.46705 17.5916 5.70219 17.8831L3.63875 18.6597C2.57265 19.0702 1.65511 19.7927 1.00597 20.7328C0.356827 21.6728 0.00624287 22.7868 0 23.9292V58.0092C0 59.6892 0.667386 61.3005 1.85534 62.4884C2.44356 63.0766 3.14187 63.5432 3.91041 63.8616C4.67895 64.1799 5.50267 64.3438 6.33453 64.3438H59.6844C60.9201 64.3438 62.1052 63.8529 62.979 62.979C63.8528 62.1052 64.3437 60.9201 64.3437 59.6844V38.8281C64.3481 38.2129 64.2309 37.6029 63.9989 37.0332C63.7668 36.4634 63.4245 35.9451 62.9915 35.508C62.5586 35.0709 62.0435 34.7237 61.476 34.4862C60.9084 34.2488 60.2996 34.1258 59.6844 34.1244ZM8.40906 2.21875H29.7091V8.74187H8.40906V2.21875ZM48.9123 12.2031H52.1406V13.9227H48.9123V12.2031ZM45.4844 16.1414H55.613V20.1352H52.9172C52.623 20.1352 52.3408 20.252 52.1327 20.4601C51.9247 20.6681 51.8078 20.9503 51.8078 21.2445C51.8078 21.5388 51.9247 21.8209 52.1327 22.029C52.3408 22.237 52.623 22.3539 52.9172 22.3539H55.5908V25.2494H50.6208C50.3266 25.2494 50.0444 25.3663 49.8363 25.5743C49.6283 25.7824 49.5114 26.0645 49.5114 26.3587C49.5114 26.653 49.6283 26.9351 49.8363 27.1432C50.0444 27.3512 50.3266 27.4681 50.6208 27.4681H55.5908V30.3636H52.9172C52.623 30.3636 52.3408 30.4805 52.1327 30.6885C51.9247 30.8966 51.8078 31.1787 51.8078 31.473C51.8078 31.7672 51.9247 32.0494 52.1327 32.2574C52.3408 32.4655 52.623 32.5823 52.9172 32.5823H55.5908V34.1244H45.4844V16.1414ZM14.6437 34.1244C14.0285 34.1258 13.4197 34.2488 12.8521 34.4862C12.2846 34.7237 11.7695 35.0709 11.3366 35.508C10.9036 35.9451 10.5613 36.4634 10.3292 37.0332C10.0972 37.6029 9.97999 38.2129 9.98437 38.8281V48.1691H2.21875V27.3905H35.8994V34.1244H14.6437ZM4.4375 20.7453L6.48984 19.9688C7.67553 19.5174 8.69634 18.7169 9.41736 17.673C10.1384 16.6291 10.5256 15.391 10.528 14.1223V10.9606H27.5902V14.1112C27.5902 15.3818 27.9765 16.6224 28.6976 17.6684C29.4188 18.7145 30.4408 19.5167 31.6283 19.9688L33.6917 20.7564C34.3408 20.9994 34.9007 21.4341 35.297 22.0028C35.6932 22.5715 35.9072 23.2472 35.9105 23.9403V25.1828H2.21875V23.9292C2.222 23.2361 2.43597 22.5604 2.83225 21.9917C3.22853 21.423 3.78838 20.9883 4.4375 20.7453ZM2.21875 58.0092V50.3434H9.98437V59.6844C9.98612 60.5486 10.2323 61.3947 10.6944 62.125H6.33453C5.24296 62.125 4.19609 61.6914 3.42423 60.9195C2.65238 60.1477 2.21875 59.1008 2.21875 58.0092ZM62.125 59.6844C62.1221 60.3308 61.864 60.9499 61.4069 61.4069C60.9499 61.864 60.3308 62.1221 59.6844 62.125H14.6437C13.9974 62.1221 13.3783 61.864 12.9212 61.4069C12.4641 60.9499 12.206 60.3308 12.2031 59.6844V38.8281C12.206 38.1817 12.4641 37.5626 12.9212 37.1056C13.3783 36.6485 13.9974 36.3904 14.6437 36.3875H59.6844C60.3308 36.3904 60.9499 36.6485 61.4069 37.1056C61.864 37.5626 62.1221 38.1817 62.125 38.8281V59.6844Z" fill="#28574E" stroke="white" stroke-width="0.4" mask="url(#path-1-inside-1_1_455)"/>
<path d="M55.3907 50.2101C56.5834 50.2101 57.7281 50.6832 58.5724 51.5255C59.4166 52.3677 59.8917 53.5107 59.8947 54.7032C59.8968 55.5945 59.6353 56.467 59.1417 57.2091C58.6481 57.9512 57.945 58.5296 57.1222 58.8722C56.2994 59.2147 55.3931 59.3055 54.5187 59.1329C53.6445 58.9603 52.8409 58.5327 52.2101 57.9034C51.5791 57.274 51.1494 56.4708 50.9747 55.5968C50.8001 54.7229 50.8881 53.8168 51.2286 52.9933C51.5692 52.1697 52.1469 51.4652 52.8878 50.9698C53.6286 50.4746 54.4997 50.2102 55.3907 50.2101ZM56.3419 52.4073C55.8879 52.2193 55.3883 52.1699 54.9064 52.2657C54.4243 52.3616 53.9815 52.5989 53.6339 52.9464C53.2864 53.2939 53.0491 53.7369 52.9532 54.2189C52.8575 54.7008 52.9068 55.2005 53.0948 55.6544C53.2829 56.1085 53.6022 56.4966 54.0109 56.7697C54.4194 57.0425 54.8995 57.1885 55.3907 57.1886C56.0499 57.1886 56.6825 56.9261 57.1486 56.4601C57.6144 55.9941 57.8761 55.3622 57.8761 54.7032C57.8761 54.2117 57.7302 53.7311 57.4572 53.3224C57.1841 52.9138 56.7959 52.5954 56.3419 52.4073Z" fill="#1E232F" stroke="white" stroke-width="0.2"/>
<path d="M43.2656 50.21C44.4562 50.213 45.5976 50.6874 46.4395 51.5293C47.2813 52.3712 47.7549 53.5125 47.7578 54.7031C47.76 55.5948 47.498 56.4676 47.0039 57.21C46.5098 57.9523 45.8058 58.5308 44.9824 58.873C44.1591 59.2152 43.2525 59.3053 42.3779 59.1318C41.5034 58.9584 40.6998 58.5298 40.0693 57.8994C39.4388 57.2689 39.0094 56.4645 38.8359 55.5898C38.6626 54.7153 38.7535 53.8086 39.0957 52.9854C39.438 52.1621 40.0166 51.4588 40.7588 50.9648C41.5011 50.4708 42.3739 50.2078 43.2656 50.21ZM44.2021 52.4062C43.7476 52.2187 43.2478 52.1699 42.7656 52.2666C42.2833 52.3634 41.8402 52.6015 41.4932 52.9502C41.1461 53.2989 40.91 53.7428 40.8154 54.2256C40.7209 54.7084 40.7721 55.2083 40.9619 55.6621C41.1518 56.116 41.4716 56.5037 41.8818 56.7754C42.292 57.047 42.7737 57.1907 43.2656 57.1885C43.9227 57.1854 44.5521 56.9218 45.0156 56.4561C45.4791 55.9903 45.7393 55.3602 45.7393 54.7031C45.7392 54.2111 45.5929 53.7302 45.3193 53.3213C45.0458 52.9125 44.6568 52.594 44.2021 52.4062Z" fill="#1E232F" stroke="white" stroke-width="0.2"/>
<path d="M31.0625 50.21C32.2551 50.21 33.3998 50.6831 34.2441 51.5254C35.0884 52.3676 35.5635 53.5106 35.5664 54.7031C35.5686 55.5944 35.3071 56.4669 34.8135 57.209C34.3199 57.951 33.6167 58.5295 32.7939 58.8721C31.9712 59.2146 31.0648 59.3054 30.1904 59.1328C29.3163 58.9602 28.5127 58.5326 27.8818 57.9033C27.2509 57.2739 26.8212 56.4706 26.6465 55.5967C26.4719 54.7228 26.5599 53.8167 26.9004 52.9932C27.241 52.1696 27.8187 51.4651 28.5596 50.9697C29.3003 50.4745 30.1715 50.21 31.0625 50.21ZM32.0137 52.4072C31.5596 52.2192 31.0601 52.1698 30.5781 52.2656C30.0961 52.3615 29.6532 52.5987 29.3057 52.9463C28.9582 53.2938 28.7209 53.7368 28.625 54.2188C28.5292 54.7007 28.5786 55.2004 28.7666 55.6543C28.9547 56.1084 29.2739 56.4965 29.6826 56.7695C30.0401 57.0083 30.4523 57.15 30.8789 57.1816L31.0625 57.1885C31.3893 57.19 31.7134 57.1263 32.0156 57.002C32.3177 56.8776 32.5922 56.6948 32.8232 56.4639C33.0544 56.2327 33.2379 55.9575 33.3623 55.6553C33.4865 55.3533 33.5493 55.0296 33.5479 54.7031L33.541 54.5195C33.5094 54.0927 33.3679 53.6799 33.1289 53.3223C32.8558 52.9137 32.4677 52.5953 32.0137 52.4072Z" fill="#1E232F" stroke="white" stroke-width="0.2"/>
<path d="M18.9375 50.21C20.1301 50.21 21.2748 50.6831 22.1191 51.5254C22.9634 52.3676 23.4385 53.5106 23.4414 54.7031C23.4436 55.5944 23.1821 56.4669 22.6885 57.209C22.1949 57.951 21.4917 58.5295 20.6689 58.8721C19.8462 59.2146 18.9398 59.3054 18.0654 59.1328C17.1913 58.9602 16.3877 58.5326 15.7568 57.9033C15.1259 57.2739 14.6962 56.4706 14.5215 55.5967C14.3469 54.7228 14.4349 53.8167 14.7754 52.9932C15.116 52.1696 15.6937 51.4651 16.4346 50.9697C17.1753 50.4745 18.0465 50.21 18.9375 50.21ZM19.8887 52.4072C19.4346 52.2192 18.9351 52.1698 18.4531 52.2656C17.9711 52.3615 17.5282 52.5987 17.1807 52.9463C16.8332 53.2938 16.5959 53.7368 16.5 54.2188C16.4042 54.7007 16.4536 55.2004 16.6416 55.6543C16.8297 56.1084 17.1489 56.4965 17.5576 56.7695C17.9661 57.0424 18.4462 57.1884 18.9375 57.1885C19.5966 57.1885 20.2293 56.926 20.6953 56.46C21.1612 55.9939 21.4229 55.3621 21.4229 54.7031C21.4228 54.2116 21.277 53.7309 21.0039 53.3223C20.7308 52.9137 20.3427 52.5953 19.8887 52.4072Z" fill="#1E232F" stroke="white" stroke-width="0.2"/>
<path d="M55.3907 39.2605C56.5853 39.2605 57.7316 39.7352 58.5763 40.5798C59.4208 41.4244 59.8945 42.5701 59.8947 43.7644C59.8947 44.6552 59.6308 45.5267 59.1359 46.2673C58.641 47.0079 57.9373 47.5847 57.1144 47.9255C56.2916 48.2663 55.3863 48.356 54.5128 48.1824C53.6392 48.0086 52.836 47.5798 52.2062 46.95C51.5763 46.3201 51.1475 45.517 50.9738 44.6433C50.8 43.7697 50.8887 42.8637 51.2296 42.0408C51.5705 41.218 52.1483 40.5151 52.8888 40.0203C53.6293 39.5254 54.5001 39.2606 55.3907 39.2605ZM56.3419 41.4685C55.8879 41.2805 55.3883 41.2311 54.9064 41.3269C54.4243 41.4228 53.9815 41.66 53.6339 42.0076C53.2864 42.3551 53.0491 42.798 52.9532 43.28C52.8574 43.7619 52.9069 44.2616 53.0948 44.7156C53.2829 45.1697 53.6022 45.5577 54.0109 45.8308C54.4194 46.1038 54.8994 46.2497 55.3907 46.2498C55.7171 46.2498 56.0404 46.1852 56.3419 46.0603C56.6434 45.9354 56.9178 45.753 57.1486 45.5222C57.3793 45.2914 57.5618 45.0171 57.6866 44.7156C57.8115 44.4141 57.8761 44.0907 57.8761 43.7644C57.876 43.2731 57.7301 42.7931 57.4572 42.3845C57.1841 41.9758 56.796 41.6566 56.3419 41.4685Z" fill="#1E232F" stroke="white" stroke-width="0.2"/>
<path d="M43.2656 39.2605C44.4581 39.2635 45.6012 39.7395 46.4434 40.5837C47.2855 41.428 47.7577 42.572 47.7578 43.7644C47.7578 44.6557 47.4934 45.5274 46.998 46.2683C46.5027 47.009 45.799 47.586 44.9756 47.9265C44.1521 48.267 43.2459 48.3559 42.3721 48.1814C41.4981 48.0067 40.6949 47.577 40.0654 46.946C39.436 46.3151 39.0085 45.5109 38.8359 44.6365C38.6635 43.7622 38.7542 42.8566 39.0967 42.0339C39.4392 41.2112 40.0177 40.508 40.7598 40.0144C41.5019 39.5208 42.3744 39.2584 43.2656 39.2605ZM44.2031 41.4675C43.7485 41.2798 43.2479 41.2312 42.7656 41.3279C42.2833 41.4247 41.8402 41.6629 41.4932 42.0115C41.1461 42.3601 40.91 42.8041 40.8154 43.2869C40.7209 43.7696 40.7722 44.2696 40.9619 44.7234C41.1518 45.1772 41.4717 45.565 41.8818 45.8367C42.292 46.1083 42.7737 46.252 43.2656 46.2498C43.9226 46.2467 44.5521 45.9839 45.0156 45.5183C45.4792 45.0526 45.7393 44.4215 45.7393 43.7644C45.7392 43.2725 45.5928 42.7914 45.3193 42.3826C45.0458 41.974 44.6576 41.6552 44.2031 41.4675Z" fill="#1E232F" stroke="white" stroke-width="0.2"/>
<path d="M31.0625 39.2605C32.257 39.2605 33.4034 39.7352 34.248 40.5798C35.0925 41.4244 35.5663 42.5701 35.5664 43.7644C35.5664 44.6552 35.3025 45.5267 34.8076 46.2673C34.3127 47.0079 33.609 47.5847 32.7861 47.9255C31.9633 48.2663 31.0581 48.356 30.1846 48.1824C29.3109 48.0086 28.5078 47.5798 27.8779 46.95C27.248 46.3201 26.8193 45.517 26.6455 44.6433C26.4718 43.7697 26.5605 42.8637 26.9014 42.0408C27.2422 41.218 27.8201 40.5151 28.5605 40.0203C29.3011 39.5254 30.1718 39.2606 31.0625 39.2605ZM32.0137 41.4685C31.5597 41.2805 31.06 41.2311 30.5781 41.3269C30.0961 41.4228 29.6532 41.66 29.3057 42.0076C28.9581 42.3551 28.7219 42.798 28.626 43.28C28.5301 43.762 28.5786 44.2616 28.7666 44.7156C28.9547 45.1697 29.2739 45.5577 29.6826 45.8308C30.0912 46.1038 30.5712 46.2497 31.0625 46.2498C31.3888 46.2498 31.7122 46.1852 32.0137 46.0603C32.3152 45.9354 32.5895 45.753 32.8203 45.5222C33.0511 45.2914 33.2335 45.0171 33.3584 44.7156C33.4833 44.4141 33.5479 44.0907 33.5479 43.7644C33.5478 43.2731 33.4018 42.7931 33.1289 42.3845C32.8558 41.9758 32.4678 41.6566 32.0137 41.4685Z" fill="#1E232F" stroke="white" stroke-width="0.2"/>
<path d="M18.9375 39.2605C20.132 39.2605 21.2784 39.7352 22.123 40.5798C22.9675 41.4244 23.4413 42.5701 23.4414 43.7644C23.4414 44.6552 23.1775 45.5267 22.6826 46.2673C22.1877 47.0079 21.484 47.5847 20.6611 47.9255C19.8383 48.2663 18.9331 48.356 18.0596 48.1824C17.1859 48.0086 16.3828 47.5798 15.7529 46.95C15.123 46.3201 14.6943 45.517 14.5205 44.6433C14.3468 43.7697 14.4355 42.8637 14.7764 42.0408C15.1172 41.218 15.6951 40.5151 16.4355 40.0203C17.1761 39.5254 18.0468 39.2606 18.9375 39.2605ZM19.8887 41.4685C19.4347 41.2805 18.935 41.2311 18.4531 41.3269C17.9711 41.4228 17.5282 41.66 17.1807 42.0076C16.8331 42.3551 16.5959 42.798 16.5 43.28C16.4042 43.7619 16.4536 44.2616 16.6416 44.7156C16.8297 45.1697 17.1489 45.5577 17.5576 45.8308C17.9662 46.1038 18.4462 46.2497 18.9375 46.2498H18.9385C19.5965 46.2467 20.2271 45.9846 20.6924 45.5193C21.1577 45.054 21.4198 44.4234 21.4229 43.7654V43.7644C21.4228 43.2731 21.2768 42.7931 21.0039 42.3845C20.7308 41.9758 20.3428 41.6566 19.8887 41.4685Z" fill="#1E232F" stroke="white" stroke-width="0.2"/>
</svg>
