<svg width="68" height="68" viewBox="0 0 68 68" fill="none" xmlns="http://www.w3.org/2000/svg">
<path d="M34.012 3.63579e-07C20.4078 -0.00198256 8.11255 8.10717 2.75796 20.6133L2.33418 20.7538L2.49848 21.2467C-4.55165 38.6349 3.82887 58.4462 21.2171 65.4963C25.2783 67.143 29.6196 67.9882 34.002 67.9858C52.7757 67.9887 67.9972 52.7717 68 33.998C68.0028 15.2243 52.7859 0.00269147 34.012 3.63579e-07ZM60.6757 51.1316L58.9301 49.3872V45.3239C58.9321 45.1485 58.8933 44.9752 58.8168 44.8174L54.3977 35.9917V31.7267C54.3977 31.348 54.2086 30.9942 53.8935 30.784L50.4942 28.5178C50.2278 28.3399 49.8985 28.2831 49.5877 28.3614L45.4247 29.4016L38.4324 26.4012L37.4704 19.6615L40.1366 16.9965H45.8598L47.7861 19.8915C47.96 20.1519 48.2341 20.3288 48.543 20.3799L55.3416 21.513C55.5237 21.5436 55.7104 21.5287 55.8855 21.4699L62.147 19.3828C67.3988 29.461 66.837 41.5824 60.6757 51.1316ZM56.0022 11.1655L54.1598 12.3938L49.0234 11.3661L45.691 10.2568C45.4871 10.1875 45.2675 10.1788 45.0587 10.2319L40.8459 11.2845L38.9989 10.6692L40.3677 7.93168H44.1999C44.3756 7.93182 44.549 7.89117 44.7064 7.81271L48.6269 5.85245C51.3268 7.26174 53.8105 9.0509 56.0022 11.1655ZM21.5912 4.7964L24.3106 6.60936C24.4443 6.6983 24.5953 6.75779 24.7536 6.78385L30.2446 7.6994L29.7087 9.30273L26.8476 10.2579C26.5914 10.3432 26.374 10.5171 26.2346 10.7486L22.9803 16.1716L17.7534 19.308L10.0483 20.4082C9.48983 20.4871 9.07455 20.9648 9.07384 21.5288V24.9281C9.07384 25.2287 9.19338 25.5168 9.40584 25.7292L11.34 27.6634V29.6101L6.62635 26.4669L4.91651 21.3374C8.16963 13.9042 14.1321 7.98947 21.5912 4.7964ZM18.3652 41.9473L13.2436 40.9218L11.34 37.1248V34.462L15.562 30.2401L17.1245 33.3663C17.3164 33.7504 17.7092 33.9931 18.1386 33.9929H25.429L28.4985 39.1089C28.7033 39.4498 29.0719 39.6583 29.4696 39.6584H32.6196L31.8264 43.6322L27.5365 47.9221C27.3236 48.1344 27.2038 48.4225 27.2034 48.7232V51.5559L23.1242 54.6153C22.839 54.8293 22.671 55.1651 22.671 55.5218V59.6145L21.2614 59.1477L19.2717 54.1711V43.0577C19.2719 42.5192 18.8928 42.0549 18.3652 41.9473ZM14.9591 59.3659C4.2756 51.3508 -0.242485 37.5021 3.65877 24.7287L4.60037 27.5524C4.67969 27.7913 4.83634 27.9971 5.04568 28.1371L10.6942 31.9024L9.40584 33.1918C9.19338 33.4043 9.07384 33.6924 9.07384 33.9929V37.3922C9.0737 37.568 9.11435 37.7413 9.19282 37.8987L11.459 42.4311C11.6159 42.7441 11.9087 42.9671 12.2522 43.035L17.0112 43.9857V54.3887C17.011 54.5326 17.0384 54.6753 17.0916 54.8091L19.3578 60.4745C19.4819 60.784 19.736 61.0232 20.0524 61.1283L23.4517 62.2614C23.5653 62.3 23.6843 62.3198 23.8041 62.3204C24.4299 62.3204 24.9372 61.813 24.9372 61.1873V56.0883L29.0164 53.029C29.3016 52.8149 29.4696 52.4791 29.4696 52.1225V49.1923L33.67 44.9919C33.8279 44.8337 33.9356 44.6321 33.9793 44.4129L35.1124 38.7474C35.2351 38.1337 34.8371 37.5368 34.2234 37.4142C34.1504 37.3996 34.0763 37.3922 34.002 37.3922H30.1109L27.0414 32.2763C26.8366 31.9354 26.468 31.7269 26.0703 31.7267H18.8389L16.8922 27.8209C16.7292 27.4949 16.4193 27.2671 16.0594 27.2091C15.6996 27.1469 15.3324 27.2656 15.077 27.5263L13.6062 28.9914V27.1943C13.6062 26.8938 13.4867 26.6057 13.2742 26.3932L11.34 24.459V22.5112L18.2995 21.5175C18.4489 21.4958 18.5927 21.4446 18.7222 21.3668L24.3877 17.9675C24.5466 17.8721 24.6797 17.7389 24.7752 17.58L27.9592 12.2737L30.9607 11.2721C31.2997 11.1609 31.5657 10.895 31.6769 10.5559L32.81 7.15664C33.0063 6.56247 32.6838 5.92157 32.0896 5.72526C32.0348 5.70713 31.9786 5.69325 31.9216 5.68362L25.3632 4.59018L24.2109 3.82194C31.3413 1.50107 39.0642 1.78831 46.0026 4.6321L43.9324 5.66549H39.6675C39.2359 5.66308 38.8406 5.90613 38.6477 6.29209L36.3815 10.8245C36.1023 11.3845 36.3299 12.0649 36.89 12.3441C36.9377 12.3679 36.987 12.3883 37.0375 12.4052L40.4368 13.5382C40.6408 13.6075 40.8603 13.6163 41.0691 13.5632L45.282 12.5105L48.3685 13.5382C48.4127 13.5541 48.4582 13.5663 48.5045 13.5745L54.17 14.7076C54.4646 14.7677 54.7711 14.7073 55.0209 14.5399L57.5999 12.8199C58.8691 14.2335 60.0097 15.7576 61.0082 17.3738L55.4334 19.2321L49.3974 18.2259L47.4031 15.2345C47.1941 14.9211 46.8428 14.7321 46.466 14.7303H39.6675C39.3669 14.7303 39.0788 14.8498 38.8664 15.0623L35.4671 18.4616C35.2147 18.7138 35.0958 19.0703 35.1464 19.4236L36.2795 27.3552C36.3366 27.7474 36.5944 28.0813 36.9594 28.2356L44.891 31.6349C45.1182 31.7334 45.3718 31.7536 45.6117 31.6927L49.658 30.6809L52.1315 32.3329V36.2591C52.1296 36.4345 52.1684 36.6078 52.2448 36.7656L56.6639 45.5913V49.8563C56.6639 50.1568 56.7835 50.4449 56.9959 50.6574L59.3664 53.029C48.8536 67.0415 28.9717 69.8788 14.9591 59.3659Z" fill="#28574E"/>
</svg>
