<svg width="41" height="34" viewBox="0 0 41 34" fill="none" xmlns="http://www.w3.org/2000/svg">
<path d="M33.032 18.224H38.888V20H30.848V3.272H33.032V18.224Z" fill="#86C03F"/>
<path d="M24.432 20.168C22.88 20.168 21.464 19.808 20.184 19.088C18.904 18.352 17.888 17.336 17.136 16.04C16.4 14.728 16.032 13.256 16.032 11.624C16.032 9.992 16.4 8.528 17.136 7.232C17.888 5.92 18.904 4.904 20.184 4.184C21.464 3.448 22.88 3.08 24.432 3.08C26 3.08 27.424 3.448 28.704 4.184C29.984 4.904 30.992 5.912 31.728 7.208C32.464 8.504 32.832 9.976 32.832 11.624C32.832 13.272 32.464 14.744 31.728 16.04C30.992 17.336 29.984 18.352 28.704 19.088C27.424 19.808 26 20.168 24.432 20.168ZM24.432 18.272C25.6 18.272 26.648 18 27.576 17.456C28.52 16.912 29.256 16.136 29.784 15.128C30.328 14.12 30.6 12.952 30.6 11.624C30.6 10.28 30.328 9.112 29.784 8.12C29.256 7.112 28.528 6.336 27.6 5.792C26.672 5.248 25.616 4.976 24.432 4.976C23.248 4.976 22.192 5.248 21.264 5.792C20.336 6.336 19.6 7.112 19.056 8.12C18.528 9.112 18.264 10.28 18.264 11.624C18.264 12.952 18.528 14.12 19.056 15.128C19.6 16.136 20.336 16.912 21.264 17.456C22.208 18 23.264 18.272 24.432 18.272Z" fill="#86C03F"/>
<path d="M15.264 23.168L11.928 19.832C11.112 20.056 10.28 20.168 9.432 20.168C7.88 20.168 6.464 19.808 5.184 19.088C3.904 18.352 2.888 17.336 2.136 16.04C1.4 14.728 1.032 13.256 1.032 11.624C1.032 9.992 1.4 8.528 2.136 7.232C2.888 5.92 3.904 4.904 5.184 4.184C6.464 3.448 7.88 3.08 9.432 3.08C11 3.08 12.424 3.448 13.704 4.184C14.984 4.904 15.992 5.912 16.728 7.208C17.464 8.504 17.832 9.976 17.832 11.624C17.832 13.224 17.48 14.664 16.776 15.944C16.072 17.224 15.104 18.232 13.872 18.968L18.096 23.168H15.264ZM3.264 11.624C3.264 12.952 3.528 14.12 4.056 15.128C4.6 16.136 5.336 16.912 6.264 17.456C7.208 18 8.264 18.272 9.432 18.272C10.6 18.272 11.648 18 12.576 17.456C13.52 16.912 14.256 16.136 14.784 15.128C15.328 14.12 15.6 12.952 15.6 11.624C15.6 10.28 15.328 9.112 14.784 8.12C14.256 7.112 13.528 6.336 12.6 5.792C11.672 5.248 10.616 4.976 9.432 4.976C8.248 4.976 7.192 5.248 6.264 5.792C5.336 6.336 4.6 7.112 4.056 8.12C3.528 9.112 3.264 10.28 3.264 11.624Z" fill="#86C03F"/>
<path d="M1.432 28.85C1.432 28.232 1.567 27.68 1.837 27.194C2.107 26.702 2.476 26.321 2.944 26.051C3.412 25.775 3.934 25.637 4.51 25.637C5.212 25.637 5.812 25.805 6.31 26.141C6.814 26.471 7.18 26.939 7.408 27.545H6.67C6.49 27.119 6.214 26.786 5.842 26.546C5.476 26.306 5.032 26.186 4.51 26.186C4.048 26.186 3.631 26.294 3.259 26.51C2.893 26.726 2.605 27.038 2.395 27.446C2.185 27.848 2.08 28.316 2.08 28.85C2.08 29.384 2.185 29.852 2.395 30.254C2.605 30.656 2.893 30.965 3.259 31.181C3.631 31.397 4.048 31.505 4.51 31.505C5.032 31.505 5.476 31.388 5.842 31.154C6.214 30.914 6.49 30.584 6.67 30.164H7.408C7.18 30.764 6.814 31.229 6.31 31.559C5.806 31.889 5.206 32.054 4.51 32.054C3.934 32.054 3.412 31.919 2.944 31.649C2.476 31.373 2.107 30.992 1.837 30.506C1.567 30.02 1.432 29.468 1.432 28.85ZM9.29336 31.487H11.5524V32H8.66336V25.709H9.29336V31.487ZM13.0814 25.709V32H12.4514V25.709H13.0814ZM19.2511 32H18.6211L15.1381 26.708V32H14.5081V25.709H15.1381L18.6211 30.992V25.709H19.2511V32ZM21.308 25.709V32H20.678V25.709H21.308ZM22.4466 28.85C22.4466 28.232 22.5816 27.68 22.8516 27.194C23.1216 26.702 23.4906 26.321 23.9586 26.051C24.4266 25.775 24.9486 25.637 25.5246 25.637C26.2266 25.637 26.8266 25.805 27.3246 26.141C27.8286 26.471 28.1946 26.939 28.4226 27.545H27.6846C27.5046 27.119 27.2286 26.786 26.8566 26.546C26.4906 26.306 26.0466 26.186 25.5246 26.186C25.0626 26.186 24.6456 26.294 24.2736 26.51C23.9076 26.726 23.6196 27.038 23.4096 27.446C23.1996 27.848 23.0946 28.316 23.0946 28.85C23.0946 29.384 23.1996 29.852 23.4096 30.254C23.6196 30.656 23.9076 30.965 24.2736 31.181C24.6456 31.397 25.0626 31.505 25.5246 31.505C26.0466 31.505 26.4906 31.388 26.8566 31.154C27.2286 30.914 27.5046 30.584 27.6846 30.164H28.4226C28.1946 30.764 27.8286 31.229 27.3246 31.559C26.8206 31.889 26.2206 32.054 25.5246 32.054C24.9486 32.054 24.4266 31.919 23.9586 31.649C23.4906 31.373 23.1216 30.992 22.8516 30.506C22.5816 30.02 22.4466 29.468 22.4466 28.85ZM33.323 30.506H30.461L29.912 32H29.246L31.541 25.79H32.252L34.538 32H33.872L33.323 30.506ZM33.134 29.984L31.892 26.582L30.65 29.984H33.134ZM36.1791 31.487H38.4381V32H35.5491V25.709H36.1791V31.487Z" fill="#662F8A"/>
</svg>
