<svg width="79" height="24" viewBox="0 0 79 24" fill="none" xmlns="http://www.w3.org/2000/svg">
<path d="M33.032 18.224H38.888V20H30.848V3.272H33.032V18.224Z" fill="white"/>
<path d="M24.432 20.168C22.88 20.168 21.464 19.808 20.184 19.088C18.904 18.352 17.888 17.336 17.136 16.04C16.4 14.728 16.032 13.256 16.032 11.624C16.032 9.992 16.4 8.528 17.136 7.232C17.888 5.92 18.904 4.904 20.184 4.184C21.464 3.448 22.88 3.08 24.432 3.08C26 3.08 27.424 3.448 28.704 4.184C29.984 4.904 30.992 5.912 31.728 7.208C32.464 8.504 32.832 9.976 32.832 11.624C32.832 13.272 32.464 14.744 31.728 16.04C30.992 17.336 29.984 18.352 28.704 19.088C27.424 19.808 26 20.168 24.432 20.168ZM24.432 18.272C25.6 18.272 26.648 18 27.576 17.456C28.52 16.912 29.256 16.136 29.784 15.128C30.328 14.12 30.6 12.952 30.6 11.624C30.6 10.28 30.328 9.112 29.784 8.12C29.256 7.112 28.528 6.336 27.6 5.792C26.672 5.248 25.616 4.976 24.432 4.976C23.248 4.976 22.192 5.248 21.264 5.792C20.336 6.336 19.6 7.112 19.056 8.12C18.528 9.112 18.264 10.28 18.264 11.624C18.264 12.952 18.528 14.12 19.056 15.128C19.6 16.136 20.336 16.912 21.264 17.456C22.208 18 23.264 18.272 24.432 18.272Z" fill="white"/>
<path d="M15.264 23.168L11.928 19.832C11.112 20.056 10.28 20.168 9.432 20.168C7.88 20.168 6.464 19.808 5.184 19.088C3.904 18.352 2.888 17.336 2.136 16.04C1.4 14.728 1.032 13.256 1.032 11.624C1.032 9.992 1.4 8.528 2.136 7.232C2.888 5.92 3.904 4.904 5.184 4.184C6.464 3.448 7.88 3.08 9.432 3.08C11 3.08 12.424 3.448 13.704 4.184C14.984 4.904 15.992 5.912 16.728 7.208C17.464 8.504 17.832 9.976 17.832 11.624C17.832 13.224 17.48 14.664 16.776 15.944C16.072 17.224 15.104 18.232 13.872 18.968L18.096 23.168H15.264ZM3.264 11.624C3.264 12.952 3.528 14.12 4.056 15.128C4.6 16.136 5.336 16.912 6.264 17.456C7.208 18 8.264 18.272 9.432 18.272C10.6 18.272 11.648 18 12.576 17.456C13.52 16.912 14.256 16.136 14.784 15.128C15.328 14.12 15.6 12.952 15.6 11.624C15.6 10.28 15.328 9.112 14.784 8.12C14.256 7.112 13.528 6.336 12.6 5.792C11.672 5.248 10.616 4.976 9.432 4.976C8.248 4.976 7.192 5.248 6.264 5.792C5.336 6.336 4.6 7.112 4.056 8.12C3.528 9.112 3.264 10.28 3.264 11.624Z" fill="white"/>
<path d="M41.432 16.85C41.432 16.232 41.567 15.68 41.837 15.194C42.107 14.702 42.476 14.321 42.944 14.051C43.412 13.775 43.934 13.637 44.51 13.637C45.212 13.637 45.812 13.805 46.31 14.141C46.814 14.471 47.18 14.939 47.408 15.545H46.67C46.49 15.119 46.214 14.786 45.842 14.546C45.476 14.306 45.032 14.186 44.51 14.186C44.048 14.186 43.631 14.294 43.259 14.51C42.893 14.726 42.605 15.038 42.395 15.446C42.185 15.848 42.08 16.316 42.08 16.85C42.08 17.384 42.185 17.852 42.395 18.254C42.605 18.656 42.893 18.965 43.259 19.181C43.631 19.397 44.048 19.505 44.51 19.505C45.032 19.505 45.476 19.388 45.842 19.154C46.214 18.914 46.49 18.584 46.67 18.164H47.408C47.18 18.764 46.814 19.229 46.31 19.559C45.806 19.889 45.206 20.054 44.51 20.054C43.934 20.054 43.412 19.919 42.944 19.649C42.476 19.373 42.107 18.992 41.837 18.506C41.567 18.02 41.432 17.468 41.432 16.85ZM49.2934 19.487H51.5524V20H48.6634V13.709H49.2934V19.487ZM53.0814 13.709V20H52.4514V13.709H53.0814ZM59.2511 20H58.6211L55.1381 14.708V20H54.5081V13.709H55.1381L58.6211 18.992V13.709H59.2511V20ZM61.308 13.709V20H60.678V13.709H61.308ZM62.4466 16.85C62.4466 16.232 62.5816 15.68 62.8516 15.194C63.1216 14.702 63.4906 14.321 63.9586 14.051C64.4266 13.775 64.9486 13.637 65.5246 13.637C66.2266 13.637 66.8266 13.805 67.3246 14.141C67.8286 14.471 68.1946 14.939 68.4226 15.545H67.6846C67.5046 15.119 67.2286 14.786 66.8566 14.546C66.4906 14.306 66.0466 14.186 65.5246 14.186C65.0626 14.186 64.6456 14.294 64.2736 14.51C63.9076 14.726 63.6196 15.038 63.4096 15.446C63.1996 15.848 63.0946 16.316 63.0946 16.85C63.0946 17.384 63.1996 17.852 63.4096 18.254C63.6196 18.656 63.9076 18.965 64.2736 19.181C64.6456 19.397 65.0626 19.505 65.5246 19.505C66.0466 19.505 66.4906 19.388 66.8566 19.154C67.2286 18.914 67.5046 18.584 67.6846 18.164H68.4226C68.1946 18.764 67.8286 19.229 67.3246 19.559C66.8206 19.889 66.2206 20.054 65.5246 20.054C64.9486 20.054 64.4266 19.919 63.9586 19.649C63.4906 19.373 63.1216 18.992 62.8516 18.506C62.5816 18.02 62.4466 17.468 62.4466 16.85ZM73.323 18.506H70.461L69.912 20H69.246L71.541 13.79H72.252L74.538 20H73.872L73.323 18.506ZM73.134 17.984L71.892 14.582L70.65 17.984H73.134ZM76.1791 19.487H78.4381V20H75.5491V13.709H76.1791V19.487Z" fill="white"/>
</svg>
