<svg width="41" height="24" viewBox="0 0 41 24" fill="none" xmlns="http://www.w3.org/2000/svg">
<path d="M33.032 18.224H38.888V20H30.848V3.272H33.032V18.224Z" fill="white"/>
<path d="M24.432 20.168C22.88 20.168 21.464 19.808 20.184 19.088C18.904 18.352 17.888 17.336 17.136 16.04C16.4 14.728 16.032 13.256 16.032 11.624C16.032 9.992 16.4 8.528 17.136 7.232C17.888 5.92 18.904 4.904 20.184 4.184C21.464 3.448 22.88 3.08 24.432 3.08C26 3.08 27.424 3.448 28.704 4.184C29.984 4.904 30.992 5.912 31.728 7.208C32.464 8.504 32.832 9.976 32.832 11.624C32.832 13.272 32.464 14.744 31.728 16.04C30.992 17.336 29.984 18.352 28.704 19.088C27.424 19.808 26 20.168 24.432 20.168ZM24.432 18.272C25.6 18.272 26.648 18 27.576 17.456C28.52 16.912 29.256 16.136 29.784 15.128C30.328 14.12 30.6 12.952 30.6 11.624C30.6 10.28 30.328 9.112 29.784 8.12C29.256 7.112 28.528 6.336 27.6 5.792C26.672 5.248 25.616 4.976 24.432 4.976C23.248 4.976 22.192 5.248 21.264 5.792C20.336 6.336 19.6 7.112 19.056 8.12C18.528 9.112 18.264 10.28 18.264 11.624C18.264 12.952 18.528 14.12 19.056 15.128C19.6 16.136 20.336 16.912 21.264 17.456C22.208 18 23.264 18.272 24.432 18.272Z" fill="white"/>
<path d="M15.264 23.168L11.928 19.832C11.112 20.056 10.28 20.168 9.432 20.168C7.88 20.168 6.464 19.808 5.184 19.088C3.904 18.352 2.888 17.336 2.136 16.04C1.4 14.728 1.032 13.256 1.032 11.624C1.032 9.992 1.4 8.528 2.136 7.232C2.888 5.92 3.904 4.904 5.184 4.184C6.464 3.448 7.88 3.08 9.432 3.08C11 3.08 12.424 3.448 13.704 4.184C14.984 4.904 15.992 5.912 16.728 7.208C17.464 8.504 17.832 9.976 17.832 11.624C17.832 13.224 17.48 14.664 16.776 15.944C16.072 17.224 15.104 18.232 13.872 18.968L18.096 23.168H15.264ZM3.264 11.624C3.264 12.952 3.528 14.12 4.056 15.128C4.6 16.136 5.336 16.912 6.264 17.456C7.208 18 8.264 18.272 9.432 18.272C10.6 18.272 11.648 18 12.576 17.456C13.52 16.912 14.256 16.136 14.784 15.128C15.328 14.12 15.6 12.952 15.6 11.624C15.6 10.28 15.328 9.112 14.784 8.12C14.256 7.112 13.528 6.336 12.6 5.792C11.672 5.248 10.616 4.976 9.432 4.976C8.248 4.976 7.192 5.248 6.264 5.792C5.336 6.336 4.6 7.112 4.056 8.12C3.528 9.112 3.264 10.28 3.264 11.624Z" fill="white"/>
</svg>
